<svg width="40" height="40" viewBox="0 0 40 40" fill="none" xmlns="http://www.w3.org/2000/svg">
<g clip-path="url(#clip0_842_296)">
<path d="M19.8125 39.5076C30.7546 39.5076 39.625 30.7737 39.625 19.9999C39.625 9.22608 30.7546 0.492188 19.8125 0.492188C8.87036 0.492188 0 9.22608 0 19.9999C0 30.7737 8.87036 39.5076 19.8125 39.5076Z" fill="#F5B300"/>
<path d="M14.4375 10.0308C15.125 10.2154 15.8125 10.3384 16.5 10.5231C17.1875 10.7077 17.875 10.8308 18.5625 11.0154C18.75 11.0769 18.8125 11.0154 18.875 10.8308C19.125 9.7846 19.375 8.79999 19.625 7.75383C19.6875 7.56922 19.75 7.50768 19.9375 7.56922C20.5625 7.75383 21.125 7.87691 21.75 7.99999C21.9375 8.06153 21.9375 8.12307 21.875 8.24614C21.625 9.23076 21.375 10.2769 21.125 11.2615C21.125 11.3231 21.125 11.3846 21.0625 11.5077C21.5625 11.6308 22.125 11.7538 22.625 11.8769C22.6875 11.8769 22.75 11.7538 22.8125 11.6923C23 10.8923 23.1875 10.1538 23.4375 9.35383L23.625 8.61537C23.625 8.4923 23.6875 8.43076 23.8125 8.4923C24.4375 8.67691 25.0625 8.79999 25.75 8.9846C25.8125 8.9846 25.8125 9.04614 25.875 9.04614C25.6875 9.84614 25.5 10.5846 25.3125 11.3231C25.25 11.6308 25.1875 11.9384 25.0625 12.2461C25 12.4308 25.0625 12.4923 25.25 12.5538L27.3125 13.4769C27.9375 13.8461 28.5 14.3384 28.9375 14.9538C29.5 15.8769 29.5625 16.8615 29.3125 17.8461C29.125 18.5231 28.875 19.1384 28.375 19.6308C28 20 27.5 20.2461 27 20.4308C26.9375 20.4308 26.875 20.4923 26.75 20.4923C27 20.6769 27.25 20.8 27.5 20.9846C28.25 21.5384 28.75 22.2154 29 23.0769C29.125 23.7538 29.0625 24.4923 28.875 25.1692C28.625 26.0308 28.3125 26.7692 27.75 27.4461C27.0625 28.2461 26.1875 28.6769 25.1875 28.8C23.875 28.9846 22.625 28.8615 21.375 28.6769C21.1875 28.6154 21.0625 28.6769 21 28.8615C20.75 29.8461 20.5 30.8923 20.25 31.8769C20.1875 32.1231 20.1875 32.1846 19.875 32.0615C19.3125 31.9384 18.6875 31.7538 18.125 31.6308C17.9375 31.5692 17.9375 31.5077 18 31.3846C18.25 30.3384 18.5 29.2923 18.8125 28.3077C18.8125 28.1846 18.875 28.1231 18.75 28.0615C18.25 27.9384 17.75 27.8154 17.1875 27.6923C17.0625 28.2461 16.875 28.8 16.75 29.3538C16.625 29.9077 16.4375 30.4615 16.3125 31.0154C16.25 31.1384 16.25 31.2 16.0625 31.1384C15.4375 30.9538 14.8125 30.8308 14.1875 30.7077C14 30.6461 14 30.5846 14.0625 30.4615C14.3125 29.4154 14.5625 28.3692 14.875 27.3846C14.875 27.3231 14.9375 27.2615 14.9375 27.1384C13.5 26.7692 12.0625 26.4 10.5625 26.0308C10.6875 25.7846 10.75 25.6 10.875 25.3538C11.125 24.8 11.375 24.2461 11.5625 23.7538C11.625 23.5692 11.6875 23.5692 11.875 23.5692C12.3125 23.6923 12.8125 23.8154 13.25 23.8769C13.75 24 14.125 23.7538 14.1875 23.3231C15 20.1846 15.8125 17.0461 16.5625 13.8461C16.6875 13.3538 16.375 12.8 15.8125 12.6154C15.25 12.4308 14.6875 12.3077 14.1875 12.1846C14.0625 12.1846 14 12.1231 14.0625 12C14.25 11.3231 14.4375 10.5846 14.625 9.90768C14.375 10.0923 14.375 10.0923 14.4375 10.0308ZM17.625 25.2308C17.6875 25.2308 17.75 25.2923 17.75 25.2923C18.75 25.5384 19.8125 25.8461 20.875 25.9077C21.625 25.9692 22.3125 25.9692 23 25.7231C24.1875 25.3538 24.6875 23.8154 24 22.8308C23.6875 22.3384 23.1875 22.0308 22.6875 21.7231C21.5625 21.1077 20.25 20.8615 19 20.6154C18.8125 20.5538 18.8125 20.6154 18.75 20.8C18.625 21.4154 18.4375 21.9692 18.3125 22.5846C18.0625 23.4461 17.875 24.3077 17.625 25.2308ZM22.875 18.9538C23 18.9538 23.3125 18.8923 23.5625 18.8308C24.75 18.5846 25.375 17.2308 24.75 16.1846C24.4375 15.6308 23.875 15.2615 23.3125 15.0154C22.4375 14.6461 21.5625 14.4615 20.625 14.2154C20.4375 14.1538 20.375 14.2154 20.3125 14.4C20 15.6923 19.6875 16.9231 19.3125 18.2154C19.25 18.3384 19.3125 18.4 19.4375 18.4615C19.6875 18.5231 19.875 18.5846 20.125 18.6461C21.0625 18.7692 21.875 18.9538 22.875 18.9538Z" fill="#141829"/>
</g>
<defs>
<clipPath id="clip0_842_296">
<rect width="40" height="40" fill="white"/>
</clipPath>
</defs>
</svg>
