<svg width="32" height="33" viewBox="0 0 32 33" fill="none" xmlns="http://www.w3.org/2000/svg">
<path d="M26.6667 25.8333V21.8333H9.33334C7.1242 21.8333 5.33334 23.6242 5.33334 25.8333M11.7333 29.8333H22.4C23.8935 29.8333 24.6402 29.8333 25.2106 29.5426C25.7124 29.287 26.1204 28.879 26.376 28.3773C26.6667 27.8068 26.6667 27.0601 26.6667 25.5666V7.43329C26.6667 5.93982 26.6667 5.19308 26.376 4.62265C26.1204 4.12089 25.7124 3.71294 25.2106 3.45728C24.6402 3.16663 23.8935 3.16663 22.4 3.16663H11.7333C9.49313 3.16663 8.37302 3.16663 7.51737 3.6026C6.76473 3.98609 6.1528 4.59802 5.76931 5.35066C5.33334 6.20631 5.33334 7.32642 5.33334 9.56663V23.4333C5.33334 25.6735 5.33334 26.7936 5.76931 27.6493C6.1528 28.4019 6.76473 29.0138 7.51737 29.3973C8.37302 29.8333 9.49313 29.8333 11.7333 29.8333Z" stroke="#A89469" stroke-width="2" stroke-linecap="round" stroke-linejoin="round"/>
</svg>
