<svg width="47" height="46" viewBox="0 0 47 46" fill="none" xmlns="http://www.w3.org/2000/svg">
<mask id="path-1-outside-1_1202_24135" maskUnits="userSpaceOnUse" x="0.46991" y="0" width="46" height="46" fill="black">
<rect fill="white" x="0.46991" width="46" height="46"/>
<path d="M3.75311 1C9.377 1 13.9367 5.55971 13.9367 11.1836V32.4111H35.173C40.7968 32.4111 45.3565 36.97 45.3566 42.5938V44.8779H23.507C17.8831 44.8779 13.3234 40.3182 13.3234 34.6943V33.0332H11.6525C6.02877 33.033 1.46991 28.4734 1.46991 22.8496V1H3.75311ZM13.9367 33.0332H13.9357V34.6943C13.9357 39.98 18.2213 44.2656 23.507 44.2656H44.7443V42.5938C44.7442 37.3082 40.4586 33.0234 35.173 33.0234H13.9367V33.0332ZM2.08221 1.6123V22.8496C2.08222 28.1352 6.36697 32.4207 11.6525 32.4209H13.3234V32.4111H13.3244V11.1836C13.3244 5.8979 9.03881 1.61231 3.75311 1.6123H2.08221Z"/>
</mask>
<path d="M3.75311 1C9.377 1 13.9367 5.55971 13.9367 11.1836V32.4111H35.173C40.7968 32.4111 45.3565 36.97 45.3566 42.5938V44.8779H23.507C17.8831 44.8779 13.3234 40.3182 13.3234 34.6943V33.0332H11.6525C6.02877 33.033 1.46991 28.4734 1.46991 22.8496V1H3.75311ZM13.9367 33.0332H13.9357V34.6943C13.9357 39.98 18.2213 44.2656 23.507 44.2656H44.7443V42.5938C44.7442 37.3082 40.4586 33.0234 35.173 33.0234H13.9367V33.0332ZM2.08221 1.6123V22.8496C2.08222 28.1352 6.36697 32.4207 11.6525 32.4209H13.3234V32.4111H13.3244V11.1836C13.3244 5.8979 9.03881 1.61231 3.75311 1.6123H2.08221Z" fill="#A89469"/>
<path d="M3.75311 1L3.75311 0.189753H3.75311V1ZM13.9367 11.1836H14.747H13.9367ZM13.9367 32.4111H13.1265V33.2214H13.9367V32.4111ZM35.173 32.4111V31.6009V32.4111ZM45.3566 42.5938H46.1669V42.5937L45.3566 42.5938ZM45.3566 44.8779V45.6882H46.1669V44.8779H45.3566ZM23.507 44.8779V45.6882V44.8779ZM13.3234 34.6943H12.5132H13.3234ZM13.3234 33.0332H14.1337V32.223H13.3234V33.0332ZM11.6525 33.0332L11.6525 33.8434H11.6525V33.0332ZM1.46991 22.8496H0.659663H1.46991ZM1.46991 1V0.189753H0.659663V1H1.46991ZM13.9367 33.0332V33.8434H14.747V33.0332H13.9367ZM13.9357 33.0332V32.223H13.1255V33.0332H13.9357ZM13.9357 34.6943H13.1255H13.9357ZM23.507 44.2656V45.0759V44.2656ZM44.7443 44.2656V45.0759H45.5546V44.2656H44.7443ZM44.7443 42.5938H45.5546V42.5937L44.7443 42.5938ZM35.173 33.0234V32.2132V33.0234ZM13.9367 33.0234V32.2132H13.1265V33.0234H13.9367ZM2.08221 1.6123V0.802058H1.27197V1.6123H2.08221ZM2.08221 22.8496H1.27197H2.08221ZM11.6525 32.4209L11.6525 33.2311H11.6525V32.4209ZM13.3234 32.4209V33.2311H14.1337V32.4209H13.3234ZM13.3234 32.4111V31.6009H12.5132V32.4111H13.3234ZM13.3244 32.4111V33.2214H14.1346V32.4111H13.3244ZM13.3244 11.1836H14.1346H13.3244ZM3.75311 1.6123L3.75311 0.802058H3.75311V1.6123ZM3.75311 1L3.75311 1.81025C8.92952 1.81025 13.1265 6.00719 13.1265 11.1836H13.9367H14.747C14.747 5.11222 9.82449 0.189755 3.75311 0.189753L3.75311 1ZM13.9367 11.1836H13.1265V32.4111H13.9367H14.747V11.1836H13.9367ZM13.9367 32.4111V33.2214H35.173V32.4111V31.6009H13.9367V32.4111ZM35.173 32.4111V33.2214C40.3494 33.2214 44.5462 37.4176 44.5464 42.5938L45.3566 42.5938L46.1669 42.5937C46.1667 36.5224 41.2442 31.6009 35.173 31.6009V32.4111ZM45.3566 42.5938H44.5464V44.8779H45.3566H46.1669V42.5938H45.3566ZM45.3566 44.8779V44.0677H23.507V44.8779V45.6882H45.3566V44.8779ZM23.507 44.8779V44.0677C18.3306 44.0677 14.1337 39.8707 14.1337 34.6943H13.3234H12.5132C12.5132 40.7657 17.4356 45.6882 23.507 45.6882V44.8779ZM13.3234 34.6943H14.1337V33.0332H13.3234H12.5132V34.6943H13.3234ZM13.3234 33.0332V32.223H11.6525V33.0332V33.8434H13.3234V33.0332ZM11.6525 33.0332L11.6525 32.223C6.47634 32.2228 2.28016 28.026 2.28016 22.8496H1.46991H0.659663C0.659667 28.9208 5.5812 33.8433 11.6525 33.8434L11.6525 33.0332ZM1.46991 22.8496H2.28016V1H1.46991H0.659663V22.8496H1.46991ZM1.46991 1V1.81025H3.75311V1V0.189753H1.46991V1ZM13.9367 33.0332V32.223H13.9357V33.0332V33.8434H13.9367V33.0332ZM13.9357 33.0332H13.1255V34.6943H13.9357H14.746V33.0332H13.9357ZM13.9357 34.6943H13.1255C13.1255 40.4275 17.7738 45.0759 23.507 45.0759V44.2656V43.4554C18.6688 43.4554 14.746 39.5325 14.746 34.6943H13.9357ZM23.507 44.2656V45.0759H44.7443V44.2656V43.4554H23.507V44.2656ZM44.7443 44.2656H45.5546V42.5938H44.7443H43.9341V44.2656H44.7443ZM44.7443 42.5938L45.5546 42.5937C45.5544 36.8606 40.906 32.2132 35.173 32.2132V33.0234V33.8337C40.0112 33.8337 43.9339 37.7558 43.9341 42.5938L44.7443 42.5938ZM35.173 33.0234V32.2132H13.9367V33.0234V33.8337H35.173V33.0234ZM13.9367 33.0234H13.1265V33.0332H13.9367H14.747V33.0234H13.9367ZM2.08221 1.6123H1.27197V22.8496H2.08221H2.89246V1.6123H2.08221ZM2.08221 22.8496H1.27197C1.27197 28.5826 5.91939 33.231 11.6525 33.2311L11.6525 32.4209L11.6526 31.6107C6.81455 31.6105 2.89247 27.6878 2.89246 22.8496H2.08221ZM11.6525 32.4209V33.2311H13.3234V32.4209V31.6107H11.6525V32.4209ZM13.3234 32.4209H14.1337V32.4111H13.3234H12.5132V32.4209H13.3234ZM13.3234 32.4111V33.2214H13.3244V32.4111V31.6009H13.3234V32.4111ZM13.3244 32.4111H14.1346V11.1836H13.3244H12.5142V32.4111H13.3244ZM13.3244 11.1836H14.1346C14.1346 5.45042 9.48629 0.80206 3.75311 0.802058L3.75311 1.6123L3.75311 2.42255C8.59132 2.42255 12.5142 6.34539 12.5142 11.1836H13.3244ZM3.75311 1.6123V0.802058H2.08221V1.6123V2.42255H3.75311V1.6123Z" fill="#A89469" mask="url(#path-1-outside-1_1202_24135)"/>
</svg>
