<svg width="32" height="33" viewBox="0 0 32 33" fill="none" xmlns="http://www.w3.org/2000/svg">
<path d="M6.66709 29.8333H25.3338M3.33376 11.1666H28.6671M13.3338 3.16663L10.6671 11.1666L16.0004 25.1666L21.3338 11.1666L18.6671 3.16663M16.7897 24.9651L28.7092 11.8537C28.9306 11.6101 29.0413 11.4884 29.0854 11.3497C29.1242 11.2275 29.1271 11.0967 29.0935 10.973C29.0554 10.8326 28.95 10.7062 28.7393 10.4533L22.9869 3.55043C22.8694 3.40935 22.8106 3.33881 22.7385 3.2881C22.6747 3.24317 22.6034 3.2098 22.528 3.18952C22.443 3.16663 22.3511 3.16663 22.1675 3.16663H9.83336C9.64972 3.16663 9.5579 3.16663 9.47281 3.18952C9.39742 3.2098 9.32617 3.24317 9.26233 3.2881C9.19027 3.33881 9.13149 3.40935 9.01392 3.55043L3.26153 10.4533C3.05082 10.7062 2.94547 10.8326 2.90736 10.973C2.87378 11.0967 2.8766 11.2275 2.91548 11.3497C2.95959 11.4884 3.07029 11.6101 3.29169 11.8537L15.2112 24.9651C15.4848 25.2661 15.6216 25.4166 15.7824 25.4722C15.9236 25.5211 16.0772 25.5211 16.2185 25.4722C16.3793 25.4166 16.5161 25.2661 16.7897 24.9651Z" stroke="#A89469" stroke-width="2" stroke-linecap="round" stroke-linejoin="round"/>
</svg>
