<svg width="66" height="48" viewBox="0 0 66 48" fill="none" xmlns="http://www.w3.org/2000/svg">
<mask id="mask0_381_6971" style="mask-type:luminance" maskUnits="userSpaceOnUse" x="1" y="0" width="39" height="40">
<rect x="1.1284" y="0.584717" width="38.6855" height="38.6855" rx="19.3428" fill="white"/>
</mask>
<g mask="url(#mask0_381_6971)">
<mask id="mask1_381_6971" style="mask-type:luminance" maskUnits="userSpaceOnUse" x="-9" y="-1" width="61" height="41">
<path d="M49.5063 -0.670593H-6.48227C-7.58684 -0.670593 -8.48227 0.224837 -8.48227 1.32941V37.3223C-8.48227 38.4269 -7.58684 39.3223 -6.48227 39.3223H49.5063C50.6109 39.3223 51.5063 38.4269 51.5063 37.3223V1.32941C51.5063 0.224837 50.6109 -0.670593 49.5063 -0.670593Z" fill="white"/>
</mask>
<g mask="url(#mask1_381_6971)">
<path d="M67.3619 -0.769714H-6.48229C-7.58686 -0.769714 -8.48229 0.125717 -8.48229 1.23029V38.201C-8.48229 39.3056 -7.58686 40.201 -6.48229 40.201H67.3619C68.4665 40.201 69.3619 39.3056 69.3619 38.201V1.23029C69.3619 0.125716 68.4665 -0.769714 67.3619 -0.769714Z" fill="#B22234"/>
<path d="M69.3619 35.4728C69.3619 36.3431 68.6564 37.0486 67.7861 37.0486H-6.90645C-7.77678 37.0486 -8.48232 36.3431 -8.48232 35.4728C-8.48232 34.6025 -7.77678 33.8969 -6.90646 33.8969H67.7861C68.6564 33.8969 69.3619 34.6025 69.3619 35.4728ZM69.3619 29.1694C69.3619 30.0397 68.6564 30.7452 67.7861 30.7452H-6.90645C-7.77678 30.7452 -8.48232 30.0397 -8.48232 29.1694C-8.48232 28.299 -7.77678 27.5935 -6.90646 27.5935H67.7861C68.6564 27.5935 69.3619 28.299 69.3619 29.1694ZM69.3619 22.8659C69.3619 23.7363 68.6564 24.4418 67.7861 24.4418H-6.90645C-7.77678 24.4418 -8.48232 23.7363 -8.48232 22.8659C-8.48232 21.9956 -7.77678 21.2901 -6.90646 21.2901H67.7861C68.6564 21.2901 69.3619 21.9956 69.3619 22.8659ZM69.3619 16.5625C69.3619 17.4328 68.6564 18.1384 67.7861 18.1384H-6.90645C-7.77678 18.1384 -8.48232 17.4328 -8.48232 16.5625C-8.48232 15.6922 -7.77678 14.9867 -6.90646 14.9867H67.7861C68.6564 14.9867 69.3619 15.6922 69.3619 16.5625ZM69.3619 10.2606C69.3619 11.1309 68.6564 11.8365 67.7861 11.8365H-6.90645C-7.77678 11.8365 -8.48232 11.1309 -8.48232 10.2606C-8.48232 9.3903 -7.77678 8.68477 -6.90646 8.68477H67.7861C68.6564 8.68477 69.3619 9.3903 69.3619 10.2606ZM69.3619 3.9572C69.3619 4.82752 68.6564 5.53306 67.7861 5.53306H-6.90645C-7.77678 5.53306 -8.48232 4.82752 -8.48232 3.9572C-8.48232 3.08688 -7.77678 2.38135 -6.90646 2.38135H67.7861C68.6564 2.38135 69.3619 3.08688 69.3619 3.9572Z" fill="white"/>
<path d="M20.6551 -0.769714H-6.48229C-7.58686 -0.769714 -8.48229 0.125719 -8.48229 1.23029V19.2907C-8.48229 20.3953 -7.58686 21.2907 -6.48229 21.2907H20.6551C21.7597 21.2907 22.6551 20.3953 22.6551 19.2907V1.23029C22.6551 0.125716 21.7597 -0.769714 20.6551 -0.769714Z" fill="#3C3B6E"/>
<path d="M1.52638 3.52104C1.64299 3.16224 2.1506 3.16224 2.26721 3.52104C2.38385 3.8799 1.97296 4.17823 1.6677 3.95642C1.36238 3.73457 1.51938 3.25153 1.89679 3.25153C2.2742 3.25153 2.43121 3.73457 2.12589 3.95642C1.82063 4.17823 1.40974 3.8799 1.52638 3.52104Z" fill="white"/>
<path d="M1.52644 7.93376C1.64306 7.57496 2.15066 7.57496 2.26728 7.93376C2.38392 8.29262 1.97303 8.59095 1.66777 8.36914C1.36245 8.14729 1.51945 7.66425 1.89686 7.66425C2.27427 7.66425 2.43128 8.14729 2.12596 8.36914C1.8207 8.59095 1.40981 8.29262 1.52644 7.93376Z" fill="white"/>
<path d="M1.52644 12.3465C1.64306 11.9877 2.15066 11.9877 2.26728 12.3465C2.38392 12.7054 1.97303 13.0037 1.66777 12.7819C1.36245 12.5601 1.51945 12.077 1.89686 12.077C2.27427 12.077 2.43128 12.5601 2.12596 12.7819C1.8207 13.0037 1.40981 12.7054 1.52644 12.3465Z" fill="white"/>
<path d="M1.52644 16.7571C1.64306 16.3983 2.15066 16.3983 2.26728 16.7571C2.38392 17.116 1.97303 17.4143 1.66777 17.1925C1.36245 16.9707 1.51945 16.4876 1.89686 16.4876C2.27427 16.4876 2.43128 16.9707 2.12596 17.1925C1.8207 17.4143 1.40981 17.116 1.52644 16.7571Z" fill="white"/>
<path d="M4.12154 1.31571C4.23816 0.956915 4.74577 0.956915 4.86238 1.31571C4.97902 1.67457 4.56813 1.97291 4.26287 1.7511C3.95755 1.52925 4.11455 1.04621 4.49196 1.04621C4.86937 1.04621 5.02638 1.52925 4.72106 1.7511C4.4158 1.97291 4.00491 1.67457 4.12154 1.31571Z" fill="white"/>
<path d="M4.12156 5.72734C4.23818 5.36854 4.74578 5.36854 4.8624 5.72734C4.97904 6.0862 4.56815 6.38453 4.26289 6.16272C3.95757 5.94087 4.11457 5.45783 4.49198 5.45783C4.86939 5.45783 5.0264 5.94087 4.72108 6.16272C4.41582 6.38453 4.00493 6.0862 4.12156 5.72734Z" fill="white"/>
<path d="M4.12156 10.1401C4.23818 9.78126 4.74578 9.78126 4.8624 10.1401C4.97904 10.4989 4.56815 10.7972 4.26289 10.5754C3.95757 10.3536 4.11457 9.87055 4.49198 9.87055C4.86939 9.87055 5.0264 10.3536 4.72108 10.5754C4.41582 10.7972 4.00493 10.4989 4.12156 10.1401Z" fill="white"/>
<path d="M4.12156 14.5528C4.23818 14.194 4.74578 14.194 4.8624 14.5528C4.97904 14.9117 4.56815 15.21 4.26289 14.9882C3.95757 14.7664 4.11457 14.2833 4.49198 14.2833C4.86939 14.2833 5.0264 14.7664 4.72108 14.9882C4.41582 15.21 4.00493 14.9117 4.12156 14.5528Z" fill="white"/>
<path d="M4.12156 18.9634C4.23818 18.6046 4.74578 18.6046 4.8624 18.9634C4.97904 19.3223 4.56815 19.6206 4.26289 19.3988C3.95757 19.177 4.11457 18.6939 4.49198 18.6939C4.86939 18.6939 5.0264 19.177 4.72108 19.3988C4.41582 19.6206 4.00493 19.3223 4.12156 18.9634Z" fill="white"/>
<path d="M6.71678 3.52104C6.8334 3.16224 7.341 3.16224 7.45762 3.52104C7.57425 3.8799 7.16336 4.17823 6.8581 3.95642C6.55279 3.73457 6.70979 3.25153 7.0872 3.25153C7.46461 3.25153 7.62161 3.73457 7.3163 3.95642C7.01103 4.17823 6.60015 3.8799 6.71678 3.52104Z" fill="white"/>
<path d="M6.71672 7.93376C6.83333 7.57496 7.34094 7.57496 7.45755 7.93376C7.57419 8.29262 7.1633 8.59095 6.85804 8.36914C6.55272 8.14729 6.70973 7.66425 7.08713 7.66425C7.46454 7.66425 7.62155 8.14729 7.31623 8.36914C7.01097 8.59095 6.60008 8.29262 6.71672 7.93376Z" fill="white"/>
<path d="M6.71672 12.3465C6.83333 11.9877 7.34094 11.9877 7.45755 12.3465C7.57419 12.7054 7.1633 13.0037 6.85804 12.7819C6.55272 12.5601 6.70973 12.077 7.08713 12.077C7.46454 12.077 7.62155 12.5601 7.31623 12.7819C7.01097 13.0037 6.60008 12.7054 6.71672 12.3465Z" fill="white"/>
<path d="M6.71672 16.7571C6.83333 16.3983 7.34094 16.3983 7.45755 16.7571C7.57419 17.116 7.1633 17.4143 6.85804 17.1925C6.55272 16.9707 6.70973 16.4876 7.08713 16.4876C7.46454 16.4876 7.62155 16.9707 7.31623 17.1925C7.01097 17.4143 6.60008 17.116 6.71672 16.7571Z" fill="white"/>
<path d="M9.31036 1.31571C9.42698 0.956915 9.93458 0.956915 10.0512 1.31571C10.1678 1.67457 9.75694 1.97291 9.45168 1.7511C9.14636 1.52925 9.30337 1.04621 9.68078 1.04621C10.0582 1.04621 10.2152 1.52925 9.90987 1.7511C9.60461 1.97291 9.19372 1.67457 9.31036 1.31571Z" fill="white"/>
<path d="M9.31038 5.72734C9.42699 5.36854 9.9346 5.36854 10.0512 5.72734C10.1678 6.0862 9.75696 6.38453 9.4517 6.16272C9.14638 5.94087 9.30338 5.45783 9.68079 5.45783C10.0582 5.45783 10.2152 5.94087 9.90989 6.16272C9.60463 6.38453 9.19374 6.0862 9.31038 5.72734Z" fill="white"/>
<path d="M9.31038 10.1401C9.42699 9.78126 9.9346 9.78126 10.0512 10.1401C10.1678 10.4989 9.75696 10.7972 9.4517 10.5754C9.14638 10.3536 9.30338 9.87055 9.68079 9.87055C10.0582 9.87055 10.2152 10.3536 9.90989 10.5754C9.60463 10.7972 9.19374 10.4989 9.31038 10.1401Z" fill="white"/>
<path d="M9.31038 14.5528C9.42699 14.194 9.9346 14.194 10.0512 14.5528C10.1678 14.9117 9.75696 15.21 9.4517 14.9882C9.14638 14.7664 9.30338 14.2833 9.68079 14.2833C10.0582 14.2833 10.2152 14.7664 9.90989 14.9882C9.60463 15.21 9.19374 14.9117 9.31038 14.5528Z" fill="white"/>
<path d="M9.31038 18.9634C9.42699 18.6046 9.9346 18.6046 10.0512 18.9634C10.1678 19.3223 9.75696 19.6206 9.4517 19.3988C9.14638 19.177 9.30338 18.6939 9.68079 18.6939C10.0582 18.6939 10.2152 19.177 9.90989 19.3988C9.60463 19.6206 9.19374 19.3223 9.31038 18.9634Z" fill="white"/>
<path d="M11.9056 3.52104C12.0222 3.16224 12.5298 3.16224 12.6464 3.52104C12.763 3.8799 12.3522 4.17823 12.0469 3.95642C11.7416 3.73457 11.8986 3.25153 12.276 3.25153C12.6534 3.25153 12.8104 3.73457 12.5051 3.95642C12.1998 4.17823 11.7889 3.8799 11.9056 3.52104Z" fill="white"/>
<path d="M11.9056 7.93376C12.0223 7.57496 12.5299 7.57496 12.6465 7.93376C12.7631 8.29262 12.3522 8.59095 12.047 8.36914C11.7416 8.14729 11.8986 7.66425 12.2761 7.66425C12.6535 7.66425 12.8105 8.14729 12.5051 8.36914C12.1999 8.59095 11.789 8.29262 11.9056 7.93376Z" fill="white"/>
<path d="M11.9056 12.3465C12.0223 11.9877 12.5299 11.9877 12.6465 12.3465C12.7631 12.7054 12.3522 13.0037 12.047 12.7819C11.7416 12.5601 11.8986 12.077 12.2761 12.077C12.6535 12.077 12.8105 12.5601 12.5051 12.7819C12.1999 13.0037 11.789 12.7054 11.9056 12.3465Z" fill="white"/>
<path d="M11.9056 16.7571C12.0223 16.3983 12.5299 16.3983 12.6465 16.7571C12.7631 17.116 12.3522 17.4143 12.047 17.1925C11.7416 16.9707 11.8986 16.4876 12.2761 16.4876C12.6535 16.4876 12.8105 16.9707 12.5051 17.1925C12.1999 17.4143 11.789 17.116 11.9056 16.7571Z" fill="white"/>
<path d="M14.5007 1.31571C14.6173 0.956915 15.1249 0.956914 15.2415 1.31571C15.3582 1.67457 14.9473 1.97291 14.642 1.7511C14.3367 1.52925 14.4937 1.04621 14.8711 1.04621C15.2485 1.04621 15.4055 1.52925 15.1002 1.7511C14.7949 1.97291 14.384 1.67457 14.5007 1.31571Z" fill="white"/>
<path d="M14.5007 5.72734C14.6173 5.36854 15.1249 5.36854 15.2415 5.72734C15.3582 6.0862 14.9473 6.38453 14.642 6.16272C14.3367 5.94087 14.4937 5.45783 14.8711 5.45783C15.2485 5.45783 15.4055 5.94087 15.1002 6.16272C14.795 6.38453 14.3841 6.0862 14.5007 5.72734Z" fill="white"/>
<path d="M14.5007 10.1401C14.6173 9.78126 15.1249 9.78126 15.2415 10.1401C15.3582 10.4989 14.9473 10.7972 14.642 10.5754C14.3367 10.3536 14.4937 9.87055 14.8711 9.87055C15.2485 9.87055 15.4055 10.3536 15.1002 10.5754C14.7949 10.7972 14.3841 10.4989 14.5007 10.1401Z" fill="white"/>
<path d="M14.5007 14.5528C14.6173 14.194 15.1249 14.194 15.2415 14.5528C15.3582 14.9117 14.9473 15.21 14.642 14.9882C14.3367 14.7664 14.4937 14.2833 14.8711 14.2833C15.2485 14.2833 15.4055 14.7664 15.1002 14.9882C14.7949 15.21 14.3841 14.9117 14.5007 14.5528Z" fill="white"/>
<path d="M14.5007 18.9634C14.6173 18.6046 15.1249 18.6046 15.2415 18.9634C15.3582 19.3223 14.9473 19.6206 14.642 19.3988C14.3367 19.177 14.4937 18.6939 14.8711 18.6939C15.2485 18.6939 15.4055 19.177 15.1002 19.3988C14.795 19.6206 14.3841 19.3223 14.5007 18.9634Z" fill="white"/>
<path d="M17.0959 3.52104C17.2125 3.16224 17.7201 3.16224 17.8368 3.52104C17.9534 3.8799 17.5425 4.17823 17.2372 3.95642C16.9319 3.73457 17.0889 3.25153 17.4663 3.25153C17.8437 3.25153 18.0008 3.73457 17.6954 3.95642C17.3902 4.17823 16.9793 3.8799 17.0959 3.52104Z" fill="white"/>
<path d="M17.096 7.93376C17.2126 7.57496 17.7202 7.57496 17.8368 7.93376C17.9534 8.29262 17.5425 8.59095 17.2373 8.36914C16.932 8.14729 17.089 7.66425 17.4664 7.66425C17.8438 7.66425 18.0008 8.14729 17.6955 8.36914C17.3902 8.59095 16.9793 8.29262 17.096 7.93376Z" fill="white"/>
<path d="M17.096 12.3465C17.2126 11.9877 17.7202 11.9877 17.8368 12.3465C17.9534 12.7054 17.5425 13.0037 17.2373 12.7819C16.932 12.5601 17.089 12.077 17.4664 12.077C17.8438 12.077 18.0008 12.5601 17.6955 12.7819C17.3902 13.0037 16.9793 12.7054 17.096 12.3465Z" fill="white"/>
<path d="M17.096 16.7571C17.2126 16.3983 17.7202 16.3983 17.8368 16.7571C17.9534 17.116 17.5425 17.4143 17.2373 17.1925C16.932 16.9707 17.089 16.4876 17.4664 16.4876C17.8438 16.4876 18.0008 16.9707 17.6955 17.1925C17.3902 17.4143 16.9793 17.116 17.096 16.7571Z" fill="white"/>
<path d="M19.6895 1.31571C19.8061 0.956915 20.3137 0.956914 20.4303 1.31571C20.5469 1.67457 20.1361 1.97291 19.8308 1.7511C19.5255 1.52925 19.6825 1.04621 20.0599 1.04621C20.4373 1.04621 20.5943 1.52925 20.289 1.7511C19.9837 1.97291 19.5728 1.67457 19.6895 1.31571Z" fill="white"/>
<path d="M19.6895 5.72734C19.8061 5.36854 20.3137 5.36854 20.4303 5.72734C20.547 6.0862 20.1361 6.38453 19.8308 6.16272C19.5255 5.94087 19.6825 5.45783 20.0599 5.45783C20.4373 5.45783 20.5943 5.94087 20.289 6.16272C19.9837 6.38453 19.5729 6.0862 19.6895 5.72734Z" fill="white"/>
<path d="M19.6895 10.1401C19.8061 9.78126 20.3137 9.78126 20.4303 10.1401C20.547 10.4989 20.1361 10.7972 19.8308 10.5754C19.5255 10.3536 19.6825 9.87055 20.0599 9.87055C20.4373 9.87055 20.5943 10.3536 20.289 10.5754C19.9837 10.7972 19.5729 10.4989 19.6895 10.1401Z" fill="white"/>
<path d="M19.6895 14.5528C19.8061 14.194 20.3137 14.194 20.4303 14.5528C20.547 14.9117 20.1361 15.21 19.8308 14.9882C19.5255 14.7664 19.6825 14.2833 20.0599 14.2833C20.4373 14.2833 20.5943 14.7664 20.289 14.9882C19.9837 15.21 19.5729 14.9117 19.6895 14.5528Z" fill="white"/>
<path d="M19.6895 18.9634C19.8061 18.6046 20.3137 18.6046 20.4303 18.9634C20.547 19.3223 20.1361 19.6206 19.8308 19.3988C19.5255 19.177 19.6825 18.6939 20.0599 18.6939C20.4373 18.6939 20.5943 19.177 20.289 19.3988C19.9837 19.6206 19.5729 19.3223 19.6895 18.9634Z" fill="white"/>
</g>
</g>
<mask id="mask2_381_6971" style="mask-type:luminance" maskUnits="userSpaceOnUse" x="26" y="9" width="40" height="39">
<rect x="26.5945" y="9.31451" width="38.6855" height="38.6855" rx="19.3428" fill="white"/>
</mask>
<g mask="url(#mask2_381_6971)">
<mask id="mask3_381_6971" style="mask-type:luminance" maskUnits="userSpaceOnUse" x="15" y="8" width="61" height="41">
<path d="M73.7687 8.42499H17.7798C16.6752 8.42499 15.7798 9.32042 15.7798 10.425V46.4171C15.7798 47.5216 16.6752 48.4171 17.7798 48.4171H73.7687C74.8732 48.4171 75.7687 47.5216 75.7687 46.4171V10.425C75.7687 9.32042 74.8732 8.42499 73.7687 8.42499Z" fill="white"/>
</mask>
<g mask="url(#mask3_381_6971)">
<path d="M74.1471 8.17365H17.4013C16.2967 8.17365 15.4013 9.06908 15.4013 10.1736V46.6709C15.4013 47.7754 16.2967 48.6709 17.4013 48.6709H74.1471C75.2517 48.6709 76.1471 47.7754 76.1471 46.6709V10.1736C76.1471 9.06908 75.2517 8.17365 74.1471 8.17365Z" fill="white"/>
<path d="M45.7735 40.5706C52.4829 40.5706 57.922 35.1315 57.922 28.422C57.922 21.7125 52.4829 16.2734 45.7735 16.2734C39.064 16.2734 33.6249 21.7125 33.6249 28.422C33.6249 35.1315 39.064 40.5706 45.7735 40.5706Z" fill="#BC002D"/>
</g>
</g>
</svg>
