<svg width="66" height="48" viewBox="0 0 66 48" fill="none" xmlns="http://www.w3.org/2000/svg">
<mask id="mask0_381_7085" style="mask-type:luminance" maskUnits="userSpaceOnUse" x="1" y="1" width="39" height="39">
<rect x="1" y="1" width="38.6855" height="38.6855" rx="19.3428" fill="white"/>
</mask>
<g mask="url(#mask0_381_7085)">
<path d="M50.4055 -0.314514H-9.59448V39.6855H50.4055V-0.314514Z" fill="#003399"/>
<path d="M20.4056 5.03906L19.7189 7.15252L20.7756 7.49587L20.4056 5.03906Z" fill="#FFCC00"/>
<path d="M20.4056 5.03906L21.0923 7.15252L20.0356 7.49587L20.4056 5.03906Z" fill="#FFCC00"/>
<path d="M22.519 6.57452H20.2968V7.68563L22.519 6.57452Z" fill="#FFCC00"/>
<path d="M22.519 6.57452L20.7212 7.88071L20.0681 6.98181L22.519 6.57452Z" fill="#FFCC00"/>
<path d="M21.7117 9.05908L21.025 6.94562L19.9683 7.28898L21.7117 9.05908Z" fill="#FFCC00"/>
<path d="M21.7117 9.05908L19.9139 7.75289L20.567 6.85398L21.7117 9.05908Z" fill="#FFCC00"/>
<path d="M18.2922 6.57452H20.5144V7.68563L18.2922 6.57452Z" fill="#FFCC00"/>
<path d="M18.2922 6.57452L20.09 7.88071L20.7431 6.98181L18.2922 6.57452Z" fill="#FFCC00"/>
<path d="M19.0994 9.05908L19.7861 6.94562L20.8428 7.28898L19.0994 9.05908Z" fill="#FFCC00"/>
<path d="M19.0994 9.05908L20.8972 7.75289L20.2441 6.85398L19.0994 9.05908Z" fill="#FFCC00"/>
<path d="M20.4056 31.7057L19.7189 33.8191L20.7756 34.1625L20.4056 31.7057Z" fill="#FFCC00"/>
<path d="M20.4056 31.7057L21.0923 33.8191L20.0356 34.1625L20.4056 31.7057Z" fill="#FFCC00"/>
<path d="M22.519 33.2413H20.2968V34.3524L22.519 33.2413Z" fill="#FFCC00"/>
<path d="M22.519 33.2413L20.7212 34.5475L20.0681 33.6486L22.519 33.2413Z" fill="#FFCC00"/>
<path d="M21.7117 35.7257L21.025 33.6122L19.9683 33.9556L21.7117 35.7257Z" fill="#FFCC00"/>
<path d="M21.7117 35.7257L19.9139 34.4195L20.567 33.5206L21.7117 35.7257Z" fill="#FFCC00"/>
<path d="M18.2922 33.2413H20.5144V34.3524L18.2922 33.2413Z" fill="#FFCC00"/>
<path d="M18.2922 33.2413L20.09 34.5475L20.7431 33.6486L18.2922 33.2413Z" fill="#FFCC00"/>
<path d="M19.0994 35.7257L19.7861 33.6122L20.8428 33.9556L19.0994 35.7257Z" fill="#FFCC00"/>
<path d="M19.0994 35.7257L20.8972 34.4195L20.2441 33.5206L19.0994 35.7257Z" fill="#FFCC00"/>
<path d="M7.0722 18.3724L6.3855 20.4859L7.44223 20.8292L7.0722 18.3724Z" fill="#FFCC00"/>
<path d="M7.0722 18.3724L7.75891 20.4859L6.70218 20.8292L7.0722 18.3724Z" fill="#FFCC00"/>
<path d="M9.18567 19.908H6.96345V21.0191L9.18567 19.908Z" fill="#FFCC00"/>
<path d="M9.18567 19.908L7.38785 21.2142L6.73476 20.3153L9.18567 19.908Z" fill="#FFCC00"/>
<path d="M8.37842 22.3924L7.69171 20.2789L6.63498 20.6223L8.37842 22.3924Z" fill="#FFCC00"/>
<path d="M8.37842 22.3924L6.5806 21.0862L7.2337 20.1873L8.37842 22.3924Z" fill="#FFCC00"/>
<path d="M4.95874 19.908H7.18096V21.0191L4.95874 19.908Z" fill="#FFCC00"/>
<path d="M4.95874 19.908L6.75656 21.2142L7.40965 20.3153L4.95874 19.908Z" fill="#FFCC00"/>
<path d="M5.76599 22.3924L6.4527 20.2789L7.50943 20.6223L5.76599 22.3924Z" fill="#FFCC00"/>
<path d="M5.76599 22.3924L7.56381 21.0862L6.91071 20.1873L5.76599 22.3924Z" fill="#FFCC00"/>
<path d="M12.4324 10.8455L14.2302 9.53933L13.5771 8.64042L12.4324 10.8455Z" fill="#FFCC00"/>
<path d="M12.4324 10.8455L13.1191 8.73206L14.1758 9.07541L12.4324 10.8455Z" fill="#FFCC00"/>
<path d="M11.6251 8.3609L13.4229 9.66709L14.076 8.76818L11.6251 8.3609Z" fill="#FFCC00"/>
<path d="M11.6251 8.3609H13.8473V9.47201L11.6251 8.3609Z" fill="#FFCC00"/>
<path d="M13.7386 6.82538L13.0519 8.93884L14.1086 9.28219L13.7386 6.82538Z" fill="#FFCC00"/>
<path d="M13.7386 6.82538L14.4253 8.93884L13.3686 9.28219L13.7386 6.82538Z" fill="#FFCC00"/>
<path d="M15.0447 10.8454L13.2469 9.53921L13.9 8.6403L15.0447 10.8454Z" fill="#FFCC00"/>
<path d="M15.0447 10.8454L14.358 8.73194L13.3012 9.07529L15.0447 10.8454Z" fill="#FFCC00"/>
<path d="M15.8521 8.3609L14.0542 9.66709L13.4011 8.76818L15.8521 8.3609Z" fill="#FFCC00"/>
<path d="M15.8521 8.3609H13.6298V9.47201L15.8521 8.3609Z" fill="#FFCC00"/>
<path d="M10.1647 15.7258L9.47797 13.6124L8.42124 13.9557L10.1647 15.7258Z" fill="#FFCC00"/>
<path d="M10.1647 15.7258L8.36686 14.4196L9.01995 13.5207L10.1647 15.7258Z" fill="#FFCC00"/>
<path d="M7.55231 15.7258L9.35012 14.4196L8.69703 13.5207L7.55231 15.7258Z" fill="#FFCC00"/>
<path d="M7.55231 15.7258L8.23901 13.6124L9.29574 13.9557L7.55231 15.7258Z" fill="#FFCC00"/>
<path d="M6.74506 13.2413L8.54287 14.5475L9.19597 13.6486L6.74506 13.2413Z" fill="#FFCC00"/>
<path d="M6.74506 13.2413H8.96728V14.3524L6.74506 13.2413Z" fill="#FFCC00"/>
<path d="M10.9719 13.2413L9.17411 14.5475L8.52101 13.6486L10.9719 13.2413Z" fill="#FFCC00"/>
<path d="M10.9719 13.2413H8.7497V14.3524L10.9719 13.2413Z" fill="#FFCC00"/>
<path d="M8.85846 11.7057L9.54516 13.8192L8.48843 14.1626L8.85846 11.7057Z" fill="#FFCC00"/>
<path d="M8.85846 11.7057L8.17176 13.8192L9.22848 14.1626L8.85846 11.7057Z" fill="#FFCC00"/>
<path d="M10.9719 26.5747H8.7497V27.6858L10.9719 26.5747Z" fill="#FFCC00"/>
<path d="M10.9719 26.5747L9.17411 27.8809L8.52101 26.982L10.9719 26.5747Z" fill="#FFCC00"/>
<path d="M10.1647 29.0591L9.47803 26.9457L8.4213 27.289L10.1647 29.0591Z" fill="#FFCC00"/>
<path d="M10.1647 29.0591L8.36692 27.753L9.02001 26.854L10.1647 29.0591Z" fill="#FFCC00"/>
<path d="M7.55231 29.0592L9.35012 27.753L8.69703 26.8541L7.55231 29.0592Z" fill="#FFCC00"/>
<path d="M7.55231 29.0592L8.23901 26.9457L9.29574 27.2891L7.55231 29.0592Z" fill="#FFCC00"/>
<path d="M8.85846 25.0391L9.54516 27.1526L8.48843 27.4959L8.85846 25.0391Z" fill="#FFCC00"/>
<path d="M8.85846 25.0391L8.17176 27.1526L9.22848 27.4959L8.85846 25.0391Z" fill="#FFCC00"/>
<path d="M6.74506 26.5747H8.96728V27.6858L6.74506 26.5747Z" fill="#FFCC00"/>
<path d="M6.74506 26.5747L8.54287 27.8809L9.19597 26.982L6.74506 26.5747Z" fill="#FFCC00"/>
<path d="M15.8523 31.455H13.6301V32.5661L15.8523 31.455Z" fill="#FFCC00"/>
<path d="M15.8523 31.455L14.0545 32.7611L13.4014 31.8622L15.8523 31.455Z" fill="#FFCC00"/>
<path d="M15.045 33.9395L14.3583 31.8261L13.3016 32.1694L15.045 33.9395Z" fill="#FFCC00"/>
<path d="M15.045 33.9395L13.2472 32.6333L13.9003 31.7344L15.045 33.9395Z" fill="#FFCC00"/>
<path d="M12.4327 33.9395L14.2305 32.6333L13.5774 31.7344L12.4327 33.9395Z" fill="#FFCC00"/>
<path d="M12.4327 33.9395L13.1194 31.8261L14.1761 32.1694L12.4327 33.9395Z" fill="#FFCC00"/>
<path d="M13.7388 29.9195L14.4255 32.033L13.3688 32.3763L13.7388 29.9195Z" fill="#FFCC00"/>
<path d="M13.7388 29.9195L13.0521 32.033L14.1089 32.3763L13.7388 29.9195Z" fill="#FFCC00"/>
<path d="M11.6254 31.455H13.8476V32.5661L11.6254 31.455Z" fill="#FFCC00"/>
<path d="M11.6254 31.455L13.4232 32.7611L14.0763 31.8622L11.6254 31.455Z" fill="#FFCC00"/>
<path d="M33.7389 18.3724L34.4256 20.4858L33.3689 20.8292L33.7389 18.3724Z" fill="#FFCC00"/>
<path d="M33.7389 18.3724L33.0522 20.4858L34.1089 20.8292L33.7389 18.3724Z" fill="#FFCC00"/>
<path d="M31.6254 19.908H33.8476V21.0191L31.6254 19.908Z" fill="#FFCC00"/>
<path d="M31.6254 19.908L33.4232 21.2141L34.0763 20.3152L31.6254 19.908Z" fill="#FFCC00"/>
<path d="M32.4326 22.3923L33.1193 20.2789L34.1761 20.6222L32.4326 22.3923Z" fill="#FFCC00"/>
<path d="M32.4326 22.3923L34.2304 21.0861L33.5773 20.1872L32.4326 22.3923Z" fill="#FFCC00"/>
<path d="M35.8524 19.908H33.6301V21.0191L35.8524 19.908Z" fill="#FFCC00"/>
<path d="M35.8524 19.908L34.0545 21.2141L33.4014 20.3152L35.8524 19.908Z" fill="#FFCC00"/>
<path d="M35.045 22.3923L34.3583 20.2789L33.3016 20.6222L35.045 22.3923Z" fill="#FFCC00"/>
<path d="M35.045 22.3923L33.2472 21.0861L33.9003 20.1872L35.045 22.3923Z" fill="#FFCC00"/>
<path d="M28.3787 10.8455L26.5809 9.53927L27.234 8.64036L28.3787 10.8455Z" fill="#FFCC00"/>
<path d="M28.3787 10.8455L27.692 8.732L26.6353 9.07535L28.3787 10.8455Z" fill="#FFCC00"/>
<path d="M29.186 8.36084L27.3882 9.66703L26.7351 8.76812L29.186 8.36084Z" fill="#FFCC00"/>
<path d="M29.186 8.36084H26.9638V9.47195L29.186 8.36084Z" fill="#FFCC00"/>
<path d="M27.0725 6.82532L27.7592 8.93878L26.7025 9.28213L27.0725 6.82532Z" fill="#FFCC00"/>
<path d="M27.0725 6.82532L26.3858 8.93878L27.4425 9.28213L27.0725 6.82532Z" fill="#FFCC00"/>
<path d="M25.7663 10.8454L27.5641 9.53921L26.911 8.6403L25.7663 10.8454Z" fill="#FFCC00"/>
<path d="M25.7663 10.8454L26.453 8.73194L27.5097 9.07529L25.7663 10.8454Z" fill="#FFCC00"/>
<path d="M24.9591 8.3609L26.7569 9.66709L27.41 8.76818L24.9591 8.3609Z" fill="#FFCC00"/>
<path d="M24.9591 8.3609H27.1813V9.47201L24.9591 8.3609Z" fill="#FFCC00"/>
<path d="M30.6463 15.7259L31.333 13.6124L32.3897 13.9558L30.6463 15.7259Z" fill="#FFCC00"/>
<path d="M30.6463 15.7259L32.4441 14.4197L31.791 13.5208L30.6463 15.7259Z" fill="#FFCC00"/>
<path d="M33.2588 15.7258L31.461 14.4196L32.1141 13.5207L33.2588 15.7258Z" fill="#FFCC00"/>
<path d="M33.2588 15.7258L32.5721 13.6123L31.5154 13.9557L33.2588 15.7258Z" fill="#FFCC00"/>
<path d="M34.066 13.2413L32.2682 14.5475L31.6151 13.6486L34.066 13.2413Z" fill="#FFCC00"/>
<path d="M34.066 13.2413H31.8438V14.3524L34.066 13.2413Z" fill="#FFCC00"/>
<path d="M29.8391 13.2413L31.6369 14.5475L32.29 13.6486L29.8391 13.2413Z" fill="#FFCC00"/>
<path d="M29.8391 13.2413H32.0613V14.3524L29.8391 13.2413Z" fill="#FFCC00"/>
<path d="M31.9525 11.7057L31.2658 13.8192L32.3225 14.1626L31.9525 11.7057Z" fill="#FFCC00"/>
<path d="M31.9525 11.7057L32.6392 13.8192L31.5825 14.1626L31.9525 11.7057Z" fill="#FFCC00"/>
<path d="M29.8391 26.5746H32.0613V27.6858L29.8391 26.5746Z" fill="#FFCC00"/>
<path d="M29.8391 26.5746L31.6369 27.8808L32.29 26.9819L29.8391 26.5746Z" fill="#FFCC00"/>
<path d="M30.6464 29.0591L31.3331 26.9456L32.3898 27.289L30.6464 29.0591Z" fill="#FFCC00"/>
<path d="M30.6464 29.0591L32.4442 27.7529L31.7911 26.854L30.6464 29.0591Z" fill="#FFCC00"/>
<path d="M33.2588 29.0591L31.461 27.753L32.1141 26.854L33.2588 29.0591Z" fill="#FFCC00"/>
<path d="M33.2588 29.0591L32.5721 26.9457L31.5154 27.289L33.2588 29.0591Z" fill="#FFCC00"/>
<path d="M31.9526 25.0391L31.2659 27.1525L32.3226 27.4959L31.9526 25.0391Z" fill="#FFCC00"/>
<path d="M31.9526 25.0391L32.6393 27.1525L31.5826 27.4959L31.9526 25.0391Z" fill="#FFCC00"/>
<path d="M34.066 26.5746H31.8438V27.6858L34.066 26.5746Z" fill="#FFCC00"/>
<path d="M34.066 26.5746L32.2682 27.8808L31.6151 26.9819L34.066 26.5746Z" fill="#FFCC00"/>
<path d="M24.9587 31.4549H27.181V32.566L24.9587 31.4549Z" fill="#FFCC00"/>
<path d="M24.9587 31.4549L26.7566 32.7611L27.4097 31.8622L24.9587 31.4549Z" fill="#FFCC00"/>
<path d="M25.7661 33.9395L26.4528 31.826L27.5095 32.1693L25.7661 33.9395Z" fill="#FFCC00"/>
<path d="M25.7661 33.9395L27.5639 32.6333L26.9108 31.7344L25.7661 33.9395Z" fill="#FFCC00"/>
<path d="M28.3784 33.9395L26.5806 32.6333L27.2337 31.7344L28.3784 33.9395Z" fill="#FFCC00"/>
<path d="M28.3784 33.9395L27.6917 31.826L26.635 32.1693L28.3784 33.9395Z" fill="#FFCC00"/>
<path d="M27.0721 29.9195L26.3854 32.033L27.4422 32.3763L27.0721 29.9195Z" fill="#FFCC00"/>
<path d="M27.0721 29.9195L27.7588 32.033L26.7021 32.3763L27.0721 29.9195Z" fill="#FFCC00"/>
<path d="M29.1857 31.455H26.9634V32.5661L29.1857 31.455Z" fill="#FFCC00"/>
<path d="M29.1857 31.455L27.3879 32.7611L26.7348 31.8622L29.1857 31.455Z" fill="#FFCC00"/>
</g>
<mask id="mask1_381_7085" style="mask-type:luminance" maskUnits="userSpaceOnUse" x="27" y="9" width="39" height="39">
<rect x="27" y="9" width="38.6855" height="38.6855" rx="19.3428" fill="white"/>
</mask>
<g mask="url(#mask1_381_7085)">
<mask id="mask2_381_7085" style="mask-type:luminance" maskUnits="userSpaceOnUse" x="17" y="7" width="61" height="41">
<path d="M75.378 7.74469H19.3893C18.2848 7.74469 17.3893 8.64012 17.3893 9.74469V45.7376C17.3893 46.8422 18.2848 47.7376 19.3893 47.7376H75.378C76.4825 47.7376 77.378 46.8422 77.378 45.7376V9.74469C77.378 8.64012 76.4825 7.74469 75.378 7.74469Z" fill="white"/>
</mask>
<g mask="url(#mask2_381_7085)">
<path d="M93.2336 7.64557H19.3893C18.2848 7.64557 17.3893 8.541 17.3893 9.64557V46.6163C17.3893 47.7209 18.2848 48.6163 19.3893 48.6163H93.2336C94.3381 48.6163 95.2336 47.7209 95.2336 46.6163V9.64557C95.2336 8.541 94.3381 7.64557 93.2336 7.64557Z" fill="#B22234"/>
<path d="M95.2336 43.8881C95.2336 44.7584 94.528 45.4639 93.6577 45.4639H18.9652C18.0949 45.4639 17.3893 44.7584 17.3893 43.8881C17.3893 43.0177 18.0949 42.3122 18.9652 42.3122H93.6577C94.528 42.3122 95.2336 43.0177 95.2336 43.8881ZM95.2336 37.5846C95.2336 38.455 94.528 39.1605 93.6577 39.1605H18.9652C18.0949 39.1605 17.3893 38.455 17.3893 37.5846C17.3893 36.7143 18.0949 36.0088 18.9652 36.0088H93.6577C94.528 36.0088 95.2336 36.7143 95.2336 37.5846ZM95.2336 31.2812C95.2336 32.1515 94.528 32.8571 93.6577 32.8571H18.9652C18.0949 32.8571 17.3893 32.1515 17.3893 31.2812C17.3893 30.4109 18.0949 29.7054 18.9652 29.7054H93.6577C94.528 29.7054 95.2336 30.4109 95.2336 31.2812ZM95.2336 24.9778C95.2336 25.8481 94.528 26.5536 93.6577 26.5536H18.9652C18.0949 26.5536 17.3893 25.8481 17.3893 24.9778C17.3893 24.1075 18.0949 23.4019 18.9652 23.4019H93.6577C94.528 23.4019 95.2336 24.1075 95.2336 24.9778ZM95.2336 18.6759C95.2336 19.5462 94.528 20.2518 93.6577 20.2518H18.9652C18.0949 20.2518 17.3893 19.5462 17.3893 18.6759C17.3893 17.8056 18.0949 17.1001 18.9652 17.1001H93.6577C94.528 17.1001 95.2336 17.8056 95.2336 18.6759ZM95.2336 12.3725C95.2336 13.2428 94.528 13.9483 93.6577 13.9483H18.9652C18.0949 13.9483 17.3893 13.2428 17.3893 12.3725C17.3893 11.5022 18.0949 10.7966 18.9652 10.7966H93.6577C94.528 10.7966 95.2336 11.5022 95.2336 12.3725Z" fill="white"/>
<path d="M46.5267 7.64557H19.3893C18.2848 7.64557 17.3893 8.541 17.3893 9.64557V27.706C17.3893 28.8106 18.2848 29.706 19.3893 29.706H46.5267C47.6313 29.706 48.5267 28.8106 48.5267 27.706V9.64557C48.5267 8.541 47.6313 7.64557 46.5267 7.64557Z" fill="#3C3B6E"/>
<path d="M27.398 11.9363C27.5146 11.5775 28.0222 11.5775 28.1388 11.9363C28.2555 12.2952 27.8446 12.5935 27.5393 12.3717C27.234 12.1499 27.391 11.6668 27.7684 11.6668C28.1458 11.6668 28.3028 12.1499 27.9975 12.3717C27.6922 12.5935 27.2813 12.2952 27.398 11.9363Z" fill="white"/>
<path d="M27.398 16.349C27.5147 15.9902 28.0223 15.9902 28.1389 16.349C28.2555 16.7079 27.8446 17.0062 27.5394 16.7844C27.234 16.5626 27.3911 16.0795 27.7685 16.0795C28.1459 16.0795 28.3029 16.5626 27.9976 16.7844C27.6923 17.0062 27.2814 16.7079 27.398 16.349Z" fill="white"/>
<path d="M27.398 20.7618C27.5147 20.403 28.0223 20.403 28.1389 20.7618C28.2555 21.1207 27.8446 21.419 27.5394 21.1972C27.234 20.9754 27.3911 20.4923 27.7685 20.4923C28.1459 20.4923 28.3029 20.9754 27.9976 21.1972C27.6923 21.419 27.2814 21.1207 27.398 20.7618Z" fill="white"/>
<path d="M27.398 25.1724C27.5147 24.8136 28.0223 24.8136 28.1389 25.1724C28.2555 25.5313 27.8446 25.8296 27.5394 25.6078C27.234 25.3859 27.3911 24.9029 27.7685 24.9029C28.1459 24.9029 28.3029 25.3859 27.9976 25.6078C27.6923 25.8296 27.2814 25.5313 27.398 25.1724Z" fill="white"/>
<path d="M29.9932 9.731C30.1098 9.3722 30.6174 9.3722 30.734 9.731C30.8507 10.0899 30.4398 10.3882 30.1345 10.1664C29.8292 9.94453 29.9862 9.46149 30.3636 9.46149C30.741 9.46149 30.898 9.94453 30.5927 10.1664C30.2875 10.3882 29.8766 10.0899 29.9932 9.731Z" fill="white"/>
<path d="M29.9932 14.1426C30.1098 13.7838 30.6174 13.7838 30.734 14.1426C30.8507 14.5015 30.4398 14.7998 30.1345 14.578C29.8292 14.3562 29.9862 13.8731 30.3636 13.8731C30.741 13.8731 30.898 14.3562 30.5927 14.578C30.2875 14.7998 29.8766 14.5015 29.9932 14.1426Z" fill="white"/>
<path d="M29.9932 18.5553C30.1098 18.1965 30.6174 18.1965 30.734 18.5553C30.8507 18.9142 30.4398 19.2125 30.1345 18.9907C29.8292 18.7689 29.9862 18.2858 30.3636 18.2858C30.741 18.2858 30.898 18.7689 30.5927 18.9907C30.2875 19.2125 29.8766 18.9142 29.9932 18.5553Z" fill="white"/>
<path d="M29.9932 22.9681C30.1098 22.6093 30.6174 22.6093 30.734 22.9681C30.8507 23.327 30.4398 23.6253 30.1345 23.4035C29.8292 23.1817 29.9862 22.6986 30.3636 22.6986C30.741 22.6986 30.898 23.1817 30.5927 23.4035C30.2875 23.6253 29.8766 23.327 29.9932 22.9681Z" fill="white"/>
<path d="M29.9932 27.3787C30.1098 27.0199 30.6174 27.0199 30.734 27.3787C30.8507 27.7376 30.4398 28.0359 30.1345 27.8141C29.8292 27.5922 29.9862 27.1092 30.3636 27.1092C30.741 27.1092 30.898 27.5922 30.5927 27.8141C30.2875 28.0359 29.8766 27.7376 29.9932 27.3787Z" fill="white"/>
<path d="M32.5884 11.9363C32.705 11.5775 33.2126 11.5775 33.3292 11.9363C33.4459 12.2952 33.035 12.5935 32.7297 12.3717C32.4244 12.1499 32.5814 11.6668 32.9588 11.6668C33.3362 11.6668 33.4932 12.1499 33.1879 12.3717C32.8827 12.5935 32.4718 12.2952 32.5884 11.9363Z" fill="white"/>
<path d="M32.5884 16.349C32.705 15.9902 33.2126 15.9902 33.3292 16.349C33.4458 16.7079 33.0349 17.0062 32.7297 16.7844C32.4244 16.5626 32.5814 16.0795 32.9588 16.0795C33.3362 16.0795 33.4932 16.5626 33.1879 16.7844C32.8826 17.0062 32.4717 16.7079 32.5884 16.349Z" fill="white"/>
<path d="M32.5884 20.7618C32.705 20.403 33.2126 20.403 33.3292 20.7618C33.4458 21.1207 33.0349 21.419 32.7297 21.1972C32.4244 20.9754 32.5814 20.4923 32.9588 20.4923C33.3362 20.4923 33.4932 20.9754 33.1879 21.1972C32.8826 21.419 32.4717 21.1207 32.5884 20.7618Z" fill="white"/>
<path d="M32.5884 25.1724C32.705 24.8136 33.2126 24.8136 33.3292 25.1724C33.4458 25.5313 33.0349 25.8296 32.7297 25.6078C32.4244 25.3859 32.5814 24.9029 32.9588 24.9029C33.3362 24.9029 33.4932 25.3859 33.1879 25.6078C32.8826 25.8296 32.4717 25.5313 32.5884 25.1724Z" fill="white"/>
<path d="M35.182 9.731C35.2987 9.3722 35.8063 9.3722 35.9229 9.731C36.0395 10.0899 35.6286 10.3882 35.3234 10.1664C35.018 9.94453 35.1751 9.46149 35.5525 9.46149C35.9299 9.46149 36.0869 9.94453 35.7816 10.1664C35.4763 10.3882 35.0654 10.0899 35.182 9.731Z" fill="white"/>
<path d="M35.182 14.1426C35.2987 13.7838 35.8063 13.7838 35.9229 14.1426C36.0395 14.5015 35.6286 14.7998 35.3234 14.578C35.018 14.3562 35.1751 13.8731 35.5525 13.8731C35.9299 13.8731 36.0869 14.3562 35.7816 14.578C35.4763 14.7998 35.0654 14.5015 35.182 14.1426Z" fill="white"/>
<path d="M35.182 18.5553C35.2987 18.1965 35.8063 18.1965 35.9229 18.5553C36.0395 18.9142 35.6286 19.2125 35.3234 18.9907C35.018 18.7689 35.1751 18.2858 35.5525 18.2858C35.9299 18.2858 36.0869 18.7689 35.7816 18.9907C35.4763 19.2125 35.0654 18.9142 35.182 18.5553Z" fill="white"/>
<path d="M35.182 22.9681C35.2987 22.6093 35.8063 22.6093 35.9229 22.9681C36.0395 23.327 35.6286 23.6253 35.3234 23.4035C35.018 23.1817 35.1751 22.6986 35.5525 22.6986C35.9299 22.6986 36.0869 23.1817 35.7816 23.4035C35.4763 23.6253 35.0654 23.327 35.182 22.9681Z" fill="white"/>
<path d="M35.182 27.3787C35.2987 27.0199 35.8063 27.0199 35.9229 27.3787C36.0395 27.7376 35.6286 28.0359 35.3234 27.8141C35.018 27.5922 35.1751 27.1092 35.5525 27.1092C35.9299 27.1092 36.0869 27.5922 35.7816 27.8141C35.4763 28.0359 35.0654 27.7376 35.182 27.3787Z" fill="white"/>
<path d="M37.7773 11.9363C37.8939 11.5775 38.4015 11.5775 38.5181 11.9363C38.6347 12.2952 38.2238 12.5935 37.9186 12.3717C37.6133 12.1499 37.7703 11.6668 38.1477 11.6668C38.5251 11.6668 38.6821 12.1499 38.3768 12.3717C38.0715 12.5935 37.6606 12.2952 37.7773 11.9363Z" fill="white"/>
<path d="M37.7773 16.349C37.8939 15.9902 38.4015 15.9902 38.5182 16.349C38.6348 16.7079 38.2239 17.0062 37.9186 16.7844C37.6133 16.5626 37.7703 16.0795 38.1477 16.0795C38.5251 16.0795 38.6821 16.5626 38.3768 16.7844C38.0716 17.0062 37.6607 16.7079 37.7773 16.349Z" fill="white"/>
<path d="M37.7773 20.7618C37.8939 20.403 38.4015 20.403 38.5182 20.7618C38.6348 21.1207 38.2239 21.419 37.9186 21.1972C37.6133 20.9754 37.7703 20.4923 38.1477 20.4923C38.5251 20.4923 38.6821 20.9754 38.3768 21.1972C38.0716 21.419 37.6607 21.1207 37.7773 20.7618Z" fill="white"/>
<path d="M37.7773 25.1724C37.8939 24.8136 38.4015 24.8136 38.5182 25.1724C38.6348 25.5313 38.2239 25.8296 37.9186 25.6078C37.6133 25.3859 37.7703 24.9029 38.1477 24.9029C38.5251 24.9029 38.6821 25.3859 38.3768 25.6078C38.0716 25.8296 37.6607 25.5313 37.7773 25.1724Z" fill="white"/>
<path d="M40.3723 9.731C40.4889 9.3722 40.9965 9.3722 41.1131 9.731C41.2298 10.0899 40.8189 10.3882 40.5136 10.1664C40.2083 9.94453 40.3653 9.46149 40.7427 9.46149C41.1201 9.46149 41.2771 9.94453 40.9718 10.1664C40.6665 10.3882 40.2557 10.0899 40.3723 9.731Z" fill="white"/>
<path d="M40.3723 14.1426C40.4889 13.7838 40.9965 13.7838 41.1131 14.1426C41.2298 14.5015 40.8189 14.7998 40.5136 14.578C40.2083 14.3562 40.3653 13.8731 40.7427 13.8731C41.1201 13.8731 41.2771 14.3562 40.9718 14.578C40.6665 14.7998 40.2557 14.5015 40.3723 14.1426Z" fill="white"/>
<path d="M40.3723 18.5553C40.4889 18.1965 40.9965 18.1965 41.1131 18.5553C41.2298 18.9142 40.8189 19.2125 40.5136 18.9907C40.2083 18.7689 40.3653 18.2858 40.7427 18.2858C41.1201 18.2858 41.2771 18.7689 40.9718 18.9907C40.6665 19.2125 40.2557 18.9142 40.3723 18.5553Z" fill="white"/>
<path d="M40.3723 22.9681C40.4889 22.6093 40.9965 22.6093 41.1131 22.9681C41.2298 23.327 40.8189 23.6253 40.5136 23.4035C40.2083 23.1817 40.3653 22.6986 40.7427 22.6986C41.1201 22.6986 41.2771 23.1817 40.9718 23.4035C40.6665 23.6253 40.2557 23.327 40.3723 22.9681Z" fill="white"/>
<path d="M40.3723 27.3787C40.4889 27.0199 40.9965 27.0199 41.1131 27.3787C41.2298 27.7376 40.8189 28.0359 40.5136 27.8141C40.2083 27.5922 40.3653 27.1092 40.7427 27.1092C41.1201 27.1092 41.2771 27.5922 40.9718 27.8141C40.6665 28.0359 40.2557 27.7376 40.3723 27.3787Z" fill="white"/>
<path d="M42.9675 11.9363C43.0841 11.5775 43.5917 11.5775 43.7083 11.9363C43.825 12.2952 43.4141 12.5935 43.1088 12.3717C42.8035 12.1499 42.9605 11.6668 43.3379 11.6668C43.7153 11.6668 43.8723 12.1499 43.567 12.3717C43.2618 12.5935 42.8509 12.2952 42.9675 11.9363Z" fill="white"/>
<path d="M42.9676 16.349C43.0842 15.9902 43.5918 15.9902 43.7084 16.349C43.825 16.7079 43.4141 17.0062 43.1089 16.7844C42.8036 16.5626 42.9606 16.0795 43.338 16.0795C43.7154 16.0795 43.8724 16.5626 43.5671 16.7844C43.2618 17.0062 42.8509 16.7079 42.9676 16.349Z" fill="white"/>
<path d="M42.9676 20.7618C43.0842 20.403 43.5918 20.403 43.7084 20.7618C43.825 21.1207 43.4141 21.419 43.1089 21.1972C42.8036 20.9754 42.9606 20.4923 43.338 20.4923C43.7154 20.4923 43.8724 20.9754 43.5671 21.1972C43.2618 21.419 42.8509 21.1207 42.9676 20.7618Z" fill="white"/>
<path d="M42.9676 25.1724C43.0842 24.8136 43.5918 24.8136 43.7084 25.1724C43.825 25.5313 43.4141 25.8296 43.1089 25.6078C42.8036 25.3859 42.9606 24.9029 43.338 24.9029C43.7154 24.9029 43.8724 25.3859 43.5671 25.6078C43.2618 25.8296 42.8509 25.5313 42.9676 25.1724Z" fill="white"/>
<path d="M45.5611 9.731C45.6777 9.3722 46.1853 9.3722 46.3019 9.731C46.4185 10.0899 46.0077 10.3882 45.7024 10.1664C45.3971 9.94453 45.5541 9.46149 45.9315 9.46149C46.3089 9.46149 46.4659 9.94453 46.1606 10.1664C45.8553 10.3882 45.4444 10.0899 45.5611 9.731Z" fill="white"/>
<path d="M45.5611 14.1426C45.6777 13.7838 46.1853 13.7838 46.3019 14.1426C46.4185 14.5015 46.0077 14.7998 45.7024 14.578C45.3971 14.3562 45.5541 13.8731 45.9315 13.8731C46.3089 13.8731 46.4659 14.3562 46.1606 14.578C45.8553 14.7998 45.4444 14.5015 45.5611 14.1426Z" fill="white"/>
<path d="M45.5611 18.5553C45.6777 18.1965 46.1853 18.1965 46.3019 18.5553C46.4185 18.9142 46.0077 19.2125 45.7024 18.9907C45.3971 18.7689 45.5541 18.2858 45.9315 18.2858C46.3089 18.2858 46.4659 18.7689 46.1606 18.9907C45.8553 19.2125 45.4444 18.9142 45.5611 18.5553Z" fill="white"/>
<path d="M45.5611 22.9681C45.6777 22.6093 46.1853 22.6093 46.3019 22.9681C46.4185 23.327 46.0077 23.6253 45.7024 23.4035C45.3971 23.1817 45.5541 22.6986 45.9315 22.6986C46.3089 22.6986 46.4659 23.1817 46.1606 23.4035C45.8553 23.6253 45.4444 23.327 45.5611 22.9681Z" fill="white"/>
<path d="M45.5611 27.3787C45.6777 27.0199 46.1853 27.0199 46.3019 27.3787C46.4185 27.7376 46.0077 28.0359 45.7024 27.8141C45.3971 27.5922 45.5541 27.1092 45.9315 27.1092C46.3089 27.1092 46.4659 27.5922 46.1606 27.8141C45.8553 28.0359 45.4444 27.7376 45.5611 27.3787Z" fill="white"/>
</g>
</g>
</svg>
