<svg width="25" height="24" viewBox="0 0 25 24" fill="none" xmlns="http://www.w3.org/2000/svg">
<path d="M17.3333 10V8C17.3333 5.23858 15.0948 3 12.3333 3C9.57192 3 7.33334 5.23858 7.33334 8V10M12.3333 14.5V16.5M9.13334 21H15.5333C17.2135 21 18.0536 21 18.6953 20.673C19.2598 20.3854 19.7187 19.9265 20.0064 19.362C20.3333 18.7202 20.3333 17.8802 20.3333 16.2V14.8C20.3333 13.1198 20.3333 12.2798 20.0064 11.638C19.7187 11.0735 19.2598 10.6146 18.6953 10.327C18.0536 10 17.2135 10 15.5333 10H9.13334C7.45319 10 6.61311 10 5.97137 10.327C5.40689 10.6146 4.94794 11.0735 4.66032 11.638C4.33334 12.2798 4.33334 13.1198 4.33334 14.8V16.2C4.33334 17.8802 4.33334 18.7202 4.66032 19.362C4.94794 19.9265 5.40689 20.3854 5.97137 20.673C6.61311 21 7.45319 21 9.13334 21Z" stroke="#FFF4E4" stroke-width="2" stroke-linecap="round" stroke-linejoin="round"/>
</svg>
