<svg width="25" height="24" viewBox="0 0 25 24" fill="none" xmlns="http://www.w3.org/2000/svg">
<path d="M10.6666 15L7.59137 18.1137C7.16241 18.548 6.94793 18.7652 6.76358 18.7805C6.60364 18.7938 6.44704 18.7295 6.34258 18.6076C6.22218 18.4672 6.22218 18.162 6.22218 17.5515V15.9916C6.22218 15.444 5.7737 15.0477 5.23183 14.9683C3.92037 14.7762 2.8904 13.7463 2.6983 12.4348C2.66663 12.2186 2.66663 11.9605 2.66663 11.4444V6.8C2.66663 5.11984 2.66663 4.27976 2.99361 3.63803C3.28123 3.07354 3.74017 2.6146 4.30465 2.32698C4.94639 2 5.78647 2 7.46663 2H14.8666C16.5468 2 17.3869 2 18.0286 2.32698C18.5931 2.6146 19.052 3.07354 19.3396 3.63803C19.6666 4.27976 19.6666 5.11984 19.6666 6.8V11M19.6666 22L17.4902 20.4869C17.1843 20.2742 17.0313 20.1678 16.8648 20.0924C16.7171 20.0255 16.5617 19.9768 16.4022 19.9474C16.2225 19.9143 16.0362 19.9143 15.6635 19.9143H13.8666C12.7465 19.9143 12.1865 19.9143 11.7586 19.6963C11.3823 19.5046 11.0764 19.1986 10.8846 18.8223C10.6666 18.3944 10.6666 17.8344 10.6666 16.7143V14.2C10.6666 13.0799 10.6666 12.5198 10.8846 12.092C11.0764 11.7157 11.3823 11.4097 11.7586 11.218C12.1865 11 12.7465 11 13.8666 11H19.4666C20.5867 11 21.1468 11 21.5746 11.218C21.9509 11.4097 22.2569 11.7157 22.4486 12.092C22.6666 12.5198 22.6666 13.0799 22.6666 14.2V16.9143C22.6666 17.8462 22.6666 18.3121 22.5144 18.6797C22.3114 19.1697 21.922 19.5591 21.432 19.762C21.0645 19.9143 20.5985 19.9143 19.6666 19.9143V22Z" stroke="#FFF4E4" stroke-width="2" stroke-linecap="round" stroke-linejoin="round"/>
</svg>
