<svg width="32" height="33" viewBox="0 0 32 33" fill="none" xmlns="http://www.w3.org/2000/svg">
<path d="M13.3333 20.5L9.23299 24.6516C8.66104 25.2306 8.37507 25.5202 8.12927 25.5406C7.91601 25.5583 7.70722 25.4726 7.56794 25.3101C7.40741 25.1229 7.40741 24.7159 7.40741 23.902V21.8221C7.40741 21.0919 6.80943 20.5636 6.08694 20.4577C4.33832 20.2016 2.96503 18.8283 2.7089 17.0797C2.66666 16.7914 2.66666 16.4473 2.66666 15.7592V9.56663C2.66666 7.32642 2.66666 6.20631 3.10264 5.35066C3.48613 4.59802 4.09805 3.98609 4.8507 3.6026C5.70635 3.16663 6.82645 3.16663 9.06666 3.16663H18.9333C21.1735 3.16663 22.2936 3.16663 23.1493 3.6026C23.9019 3.98609 24.5139 4.59802 24.8974 5.35066C25.3333 6.20631 25.3333 7.32642 25.3333 9.56663V15.1666M25.3333 29.8333L22.4315 27.8158C22.0235 27.5322 21.8196 27.3904 21.5976 27.2899C21.4006 27.2006 21.1935 27.1357 20.9808 27.0965C20.7411 27.0523 20.4927 27.0523 19.9959 27.0523H17.6C16.1065 27.0523 15.3598 27.0523 14.7894 26.7617C14.2876 26.506 13.8796 26.0981 13.624 25.5963C13.3333 25.0259 13.3333 24.2791 13.3333 22.7857V19.4333C13.3333 17.9398 13.3333 17.1931 13.624 16.6227C13.8796 16.1209 14.2876 15.7129 14.7894 15.4573C15.3598 15.1666 16.1065 15.1666 17.6 15.1666H25.0667C26.5601 15.1666 27.3069 15.1666 27.8773 15.4573C28.3791 15.7129 28.787 16.1209 29.0427 16.6227C29.3333 17.1931 29.3333 17.9398 29.3333 19.4333V23.0523C29.3333 24.2949 29.3333 24.9161 29.1303 25.4062C28.8597 26.0596 28.3406 26.5787 27.6872 26.8494C27.1971 27.0523 26.5758 27.0523 25.3333 27.0523V29.8333Z" stroke="#A89469" stroke-width="2" stroke-linecap="round" stroke-linejoin="round"/>
</svg>
