<svg width="32" height="33" viewBox="0 0 32 33" fill="none" xmlns="http://www.w3.org/2000/svg">
<path d="M16 23.8333H16.0133M9.59998 29.8333H22.4C23.8935 29.8333 24.6402 29.8333 25.2106 29.5426C25.7124 29.287 26.1203 28.879 26.376 28.3773C26.6666 27.8068 26.6666 27.0601 26.6666 25.5666V7.43329C26.6666 5.93982 26.6666 5.19308 26.376 4.62265C26.1203 4.12089 25.7124 3.71294 25.2106 3.45728C24.6402 3.16663 23.8935 3.16663 22.4 3.16663H9.59998C8.10651 3.16663 7.35977 3.16663 6.78934 3.45728C6.28757 3.71294 5.87962 4.12089 5.62396 4.62265C5.33331 5.19308 5.33331 5.93982 5.33331 7.43329V25.5666C5.33331 27.0601 5.33331 27.8068 5.62396 28.3773C5.87962 28.879 6.28757 29.287 6.78934 29.5426C7.35977 29.8333 8.10651 29.8333 9.59998 29.8333ZM16.6666 23.8333C16.6666 24.2015 16.3682 24.5 16 24.5C15.6318 24.5 15.3333 24.2015 15.3333 23.8333C15.3333 23.4651 15.6318 23.1666 16 23.1666C16.3682 23.1666 16.6666 23.4651 16.6666 23.8333Z" stroke="#A89469" stroke-width="2" stroke-linecap="round" stroke-linejoin="round"/>
</svg>
