<svg width="42" height="42" viewBox="0 0 42 42" fill="none" xmlns="http://www.w3.org/2000/svg">
<mask id="path-1-outside-1_1495_1146" maskUnits="userSpaceOnUse" x="0" y="0" width="42" height="42" fill="black">
<rect fill="white" width="42" height="42"/>
<path d="M3.08203 1C8.20827 1.00012 12.3641 5.15602 12.3643 10.2822V29.6357H31.7217C36.848 29.6357 41.0037 33.7917 41.0039 38.918V41H21.0879C15.9615 41 11.8057 36.8442 11.8057 31.7178V30.1992H10.2822C5.15584 30.1992 1 26.0434 1 20.917V1H3.08203ZM12.3643 30.1992H12.3633V31.7178C12.3633 36.5359 16.2698 40.4414 21.0879 40.4414H40.4463V38.918C40.4461 34.1 36.5397 30.1943 31.7217 30.1943H12.3643V30.1992ZM1.55859 1.55859V20.917C1.5586 25.7351 5.46412 29.6406 10.2822 29.6406H11.8057V10.2822C11.8055 5.4643 7.89999 1.55871 3.08203 1.55859H1.55859Z"/>
</mask>
<path d="M3.08203 1C8.20827 1.00012 12.3641 5.15602 12.3643 10.2822V29.6357H31.7217C36.848 29.6357 41.0037 33.7917 41.0039 38.918V41H21.0879C15.9615 41 11.8057 36.8442 11.8057 31.7178V30.1992H10.2822C5.15584 30.1992 1 26.0434 1 20.917V1H3.08203ZM12.3643 30.1992H12.3633V31.7178C12.3633 36.5359 16.2698 40.4414 21.0879 40.4414H40.4463V38.918C40.4461 34.1 36.5397 30.1943 31.7217 30.1943H12.3643V30.1992ZM1.55859 1.55859V20.917C1.5586 25.7351 5.46412 29.6406 10.2822 29.6406H11.8057V10.2822C11.8055 5.4643 7.89999 1.55871 3.08203 1.55859H1.55859Z" fill="#FBECD7"/>
<path d="M3.08203 1L3.08205 0.315149H3.08203V1ZM12.3643 10.2822H13.0491V10.2822L12.3643 10.2822ZM12.3643 29.6357H11.6794V30.3206H12.3643V29.6357ZM31.7217 29.6357V28.9509V29.6357ZM41.0039 38.918H41.6888V38.9179L41.0039 38.918ZM41.0039 41V41.6848H41.6888V41H41.0039ZM21.0879 41V41.6848V41ZM11.8057 31.7178H11.1208H11.8057ZM11.8057 30.1992H12.4905V29.5144H11.8057V30.1992ZM10.2822 30.1992L10.2822 30.8841H10.2822V30.1992ZM1 20.917H0.315149H1ZM1 1V0.315149H0.315149V1H1ZM12.3643 30.1992V30.8841H13.0491V30.1992H12.3643ZM12.3633 30.1992V29.5144H11.6784V30.1992H12.3633ZM12.3633 31.7178H11.6784H12.3633ZM21.0879 40.4414V41.1263V40.4414ZM40.4463 40.4414V41.1263H41.1311V40.4414H40.4463ZM40.4463 38.918H41.1311V38.9179L40.4463 38.918ZM31.7217 30.1943V29.5095V30.1943ZM12.3643 30.1943V29.5095H11.6794V30.1943H12.3643ZM1.55859 1.55859V0.873743H0.873743V1.55859H1.55859ZM1.55859 20.917H0.873743H1.55859ZM10.2822 29.6406L10.2822 30.3255H10.2822V29.6406ZM11.8057 29.6406V30.3255H12.4905V29.6406H11.8057ZM11.8057 10.2822H12.4905V10.2822L11.8057 10.2822ZM3.08203 1.55859L3.08205 0.873743H3.08203V1.55859ZM3.08203 1L3.08202 1.68485C7.83003 1.68496 11.6793 5.53425 11.6794 10.2822L12.3643 10.2822L13.0491 10.2822C13.049 4.77779 8.58651 0.315276 3.08205 0.315149L3.08203 1ZM12.3643 10.2822H11.6794V29.6357H12.3643H13.0491V10.2822H12.3643ZM12.3643 29.6357V30.3206H31.7217V29.6357V28.9509H12.3643V29.6357ZM31.7217 29.6357V30.3206C36.4697 30.3206 40.3189 34.1699 40.3191 38.918L41.0039 38.918L41.6888 38.9179C41.6886 33.4135 37.2262 28.9509 31.7217 28.9509V29.6357ZM41.0039 38.918H40.3191V41H41.0039H41.6888V38.918H41.0039ZM41.0039 41V40.3152H21.0879V41V41.6848H41.0039V41ZM21.0879 41V40.3152C16.3397 40.3151 12.4905 36.4659 12.4905 31.7178H11.8057H11.1208C11.1208 37.2224 15.5832 41.6848 21.0879 41.6848V41ZM11.8057 31.7178H12.4905V30.1992H11.8057H11.1208V31.7178H11.8057ZM11.8057 30.1992V29.5144H10.2822V30.1992V30.8841H11.8057V30.1992ZM10.2822 30.1992L10.2822 29.5144C5.53407 29.5143 1.68485 25.6651 1.68485 20.917H1H0.315149C0.315154 26.4216 4.77761 30.884 10.2822 30.8841L10.2822 30.1992ZM1 20.917H1.68485V1H1H0.315149V20.917H1ZM1 1V1.68485H3.08203V1V0.315149H1V1ZM12.3643 30.1992V29.5144H12.3633V30.1992V30.8841H12.3643V30.1992ZM12.3633 30.1992H11.6784V31.7178H12.3633H13.0481V30.1992H12.3633ZM12.3633 31.7178H11.6784C11.6784 36.9142 15.8916 41.1263 21.0879 41.1263V40.4414V39.7566C16.6479 39.7566 13.0481 36.1576 13.0481 31.7178H12.3633ZM21.0879 40.4414V41.1263H40.4463V40.4414V39.7566H21.0879V40.4414ZM40.4463 40.4414H41.1311V38.918H40.4463H39.7614V40.4414H40.4463ZM40.4463 38.918L41.1311 38.9179C41.131 33.7217 36.9179 29.5095 31.7217 29.5095V30.1943V30.8792C36.1615 30.8792 39.7613 34.4783 39.7614 38.918L40.4463 38.918ZM31.7217 30.1943V29.5095H12.3643V30.1943V30.8792H31.7217V30.1943ZM12.3643 30.1943H11.6794V30.1992H12.3643H13.0491V30.1943H12.3643ZM1.55859 1.55859H0.873743V20.917H1.55859H2.24344V1.55859H1.55859ZM1.55859 20.917H0.873743C0.873747 26.1133 5.08589 30.3254 10.2822 30.3255L10.2822 29.6406L10.2822 28.9558C5.84235 28.9557 2.24345 25.3568 2.24344 20.917H1.55859ZM10.2822 29.6406V30.3255H11.8057V29.6406V28.9558H10.2822V29.6406ZM11.8057 29.6406H12.4905V10.2822H11.8057H11.1208V29.6406H11.8057ZM11.8057 10.2822L12.4905 10.2822C12.4904 5.08606 8.27823 0.87387 3.08205 0.873743L3.08203 1.55859L3.08201 2.24344C7.52175 2.24355 11.1207 5.84253 11.1208 10.2822L11.8057 10.2822ZM3.08203 1.55859V0.873743H1.55859V1.55859V2.24344H3.08203V1.55859Z" fill="#FBECD7" mask="url(#path-1-outside-1_1495_1146)"/>
</svg>
