<svg width="48" height="48" viewBox="0 0 48 48" fill="none" xmlns="http://www.w3.org/2000/svg">
<mask id="mask0_381_7404" style="mask-type:luminance" maskUnits="userSpaceOnUse" x="0" y="0" width="48" height="48">
<rect width="48" height="48" rx="24" fill="white"/>
</mask>
<g mask="url(#mask0_381_7404)">
<mask id="mask1_381_7404" style="mask-type:luminance" maskUnits="userSpaceOnUse" x="-12" y="-2" width="75" height="51">
<path d="M60.5076 -1.55756H-9.92468C-11.0293 -1.55756 -11.9247 -0.662126 -11.9247 0.442444V46.0646C-11.9247 47.1692 -11.0293 48.0646 -9.92469 48.0646H60.5076C61.6122 48.0646 62.5076 47.1692 62.5076 46.0646V0.442444C62.5076 -0.662126 61.6122 -1.55756 60.5076 -1.55756Z" fill="white"/>
</mask>
<g mask="url(#mask1_381_7404)">
<path d="M82.6624 -1.68054H-9.92468C-11.0293 -1.68054 -11.9247 -0.785111 -11.9247 0.319458V47.1549C-11.9247 48.2595 -11.0293 49.1549 -9.92468 49.1549H82.6624C83.767 49.1549 84.6624 48.2595 84.6624 47.1549V0.319458C84.6624 -0.785112 83.767 -1.68054 82.6624 -1.68054Z" fill="#B22234"/>
<path d="M84.6624 43.2882C84.6624 44.3681 83.787 45.2435 82.7072 45.2435H-9.9694C-11.0493 45.2435 -11.9247 44.3681 -11.9247 43.2882C-11.9247 42.2083 -11.0493 41.3329 -9.9694 41.3329H82.7072C83.787 41.3329 84.6624 42.2083 84.6624 43.2882ZM84.6624 35.4671C84.6624 36.5469 83.787 37.4223 82.7072 37.4223H-9.9694C-11.0493 37.4223 -11.9247 36.5469 -11.9247 35.4671C-11.9247 34.3872 -11.0493 33.5118 -9.9694 33.5118H82.7072C83.787 33.5118 84.6624 34.3872 84.6624 35.4671ZM84.6624 27.6459C84.6624 28.7258 83.787 29.6012 82.7072 29.6012H-9.9694C-11.0493 29.6012 -11.9247 28.7258 -11.9247 27.6459C-11.9247 26.5661 -11.0493 25.6907 -9.9694 25.6907H82.7072C83.787 25.6907 84.6624 26.5661 84.6624 27.6459ZM84.6624 19.8248C84.6624 20.9047 83.787 21.7801 82.7072 21.7801H-9.9694C-11.0493 21.7801 -11.9247 20.9047 -11.9247 19.8248C-11.9247 18.7449 -11.0493 17.8695 -9.9694 17.8695H82.7072C83.787 17.8695 84.6624 18.7449 84.6624 19.8248ZM84.6624 12.0056C84.6624 13.0855 83.787 13.9609 82.7072 13.9609H-9.9694C-11.0493 13.9609 -11.9247 13.0855 -11.9247 12.0056C-11.9247 10.9257 -11.0493 10.0503 -9.9694 10.0503H82.7072C83.787 10.0503 84.6624 10.9257 84.6624 12.0056ZM84.6624 4.18447C84.6624 5.26434 83.787 6.13975 82.7072 6.13975H-9.9694C-11.0493 6.13975 -11.9247 5.26434 -11.9247 4.18447C-11.9247 3.1046 -11.0493 2.22919 -9.9694 2.22919H82.7072C83.787 2.22919 84.6624 3.1046 84.6624 4.18447Z" fill="white"/>
<path d="M24.7098 -1.68054H-9.92468C-11.0293 -1.68054 -11.9247 -0.785113 -11.9247 0.319456V23.6915C-11.9247 24.7961 -11.0293 25.6915 -9.92468 25.6915H24.7098C25.8144 25.6915 26.7098 24.7961 26.7098 23.6915V0.319458C26.7098 -0.785111 25.8144 -1.68054 24.7098 -1.68054Z" fill="#3C3B6E"/>
<path d="M0.493832 3.64328C0.638526 3.19809 1.26835 3.19809 1.41304 3.64328C1.55776 4.08855 1.04794 4.45871 0.669182 4.1835C0.29035 3.90823 0.485158 3.30888 0.953438 3.30888C1.42172 3.30888 1.61652 3.90823 1.23769 4.1835C0.858933 4.45871 0.349113 4.08855 0.493832 3.64328Z" fill="white"/>
<path d="M0.493893 9.1185C0.638587 8.67331 1.26841 8.67331 1.4131 9.1185C1.55782 9.56377 1.048 9.93393 0.669243 9.65872C0.290411 9.38345 0.485219 8.7841 0.953498 8.7841C1.42178 8.7841 1.61659 9.38345 1.23775 9.65872C0.858994 9.93393 0.349175 9.56377 0.493893 9.1185Z" fill="white"/>
<path d="M0.493893 14.5938C0.638587 14.1486 1.26841 14.1486 1.4131 14.5938C1.55782 15.039 1.048 15.4092 0.669242 15.134C0.290411 14.8587 0.485219 14.2594 0.953499 14.2594C1.42178 14.2594 1.61659 14.8587 1.23776 15.134C0.858995 15.4092 0.349175 15.039 0.493893 14.5938Z" fill="white"/>
<path d="M0.493893 20.0663C0.638587 19.6211 1.26841 19.6211 1.4131 20.0663C1.55782 20.5116 1.048 20.8817 0.669242 20.6065C0.290411 20.3313 0.485219 19.7319 0.953498 19.7319C1.42178 19.7319 1.61659 20.3313 1.23775 20.6065C0.858994 20.8817 0.349174 20.5116 0.493893 20.0663Z" fill="white"/>
<path d="M3.71386 0.907017C3.85856 0.461828 4.48838 0.461828 4.63307 0.907017C4.77779 1.35228 4.26797 1.72245 3.88921 1.44723C3.51038 1.17196 3.70519 0.572617 4.17347 0.572617C4.64175 0.572617 4.83656 1.17196 4.45773 1.44723C4.07897 1.72245 3.56915 1.35228 3.71386 0.907017Z" fill="white"/>
<path d="M3.71386 6.38083C3.85856 5.93564 4.48838 5.93564 4.63307 6.38083C4.77779 6.8261 4.26797 7.19626 3.88921 6.92105C3.51038 6.64578 3.70519 6.04643 4.17347 6.04643C4.64175 6.04643 4.83656 6.64578 4.45773 6.92105C4.07897 7.19626 3.56915 6.8261 3.71386 6.38083Z" fill="white"/>
<path d="M3.71386 11.856C3.85856 11.4108 4.48838 11.4108 4.63307 11.856C4.77779 12.3013 4.26797 12.6714 3.88921 12.3962C3.51038 12.1209 3.70519 11.5216 4.17347 11.5216C4.64175 11.5216 4.83656 12.1209 4.45773 12.3962C4.07896 12.6714 3.56915 12.3013 3.71386 11.856Z" fill="white"/>
<path d="M3.71386 17.3313C3.85856 16.8861 4.48838 16.8861 4.63307 17.3313C4.77779 17.7765 4.26797 18.1467 3.88921 17.8715C3.51038 17.5962 3.70519 16.9969 4.17347 16.9969C4.64175 16.9969 4.83656 17.5962 4.45773 17.8715C4.07897 18.1467 3.56915 17.7765 3.71386 17.3313Z" fill="white"/>
<path d="M3.71386 22.8038C3.85856 22.3586 4.48838 22.3586 4.63307 22.8038C4.77779 23.2491 4.26797 23.6192 3.88921 23.344C3.51038 23.0688 3.70519 22.4694 4.17347 22.4694C4.64175 22.4694 4.83656 23.0688 4.45773 23.344C4.07897 23.6192 3.56915 23.2491 3.71386 22.8038Z" fill="white"/>
<path d="M6.93396 3.64328C7.07865 3.1981 7.70847 3.19809 7.85317 3.64328C7.99788 4.08855 7.48806 4.45871 7.1093 4.1835C6.73047 3.90823 6.92528 3.30888 7.39356 3.30888C7.86184 3.30888 8.05665 3.90823 7.67782 4.1835C7.29906 4.45871 6.78924 4.08855 6.93396 3.64328Z" fill="white"/>
<path d="M6.93389 9.1185C7.07859 8.67331 7.70841 8.67331 7.85311 9.1185C7.99782 9.56377 7.488 9.93393 7.10924 9.65872C6.73041 9.38345 6.92522 8.7841 7.3935 8.7841C7.86178 8.7841 8.05659 9.38345 7.67776 9.65872C7.299 9.93393 6.78918 9.56377 6.93389 9.1185Z" fill="white"/>
<path d="M6.93389 14.5938C7.07859 14.1486 7.70841 14.1486 7.85311 14.5938C7.99782 15.039 7.488 15.4092 7.10924 15.134C6.73041 14.8587 6.92522 14.2594 7.3935 14.2594C7.86178 14.2594 8.05659 14.8587 7.67776 15.134C7.299 15.4092 6.78918 15.039 6.93389 14.5938Z" fill="white"/>
<path d="M6.93389 20.0663C7.07859 19.6211 7.70841 19.6211 7.85311 20.0663C7.99782 20.5116 7.488 20.8817 7.10924 20.6065C6.73041 20.3313 6.92522 19.7319 7.3935 19.7319C7.86178 19.7319 8.05659 20.3313 7.67776 20.6065C7.299 20.8817 6.78918 20.5116 6.93389 20.0663Z" fill="white"/>
<path d="M10.1521 0.907017C10.2968 0.461828 10.9266 0.461828 11.0713 0.907017C11.216 1.35228 10.7062 1.72245 10.3274 1.44723C9.94861 1.17196 10.1434 0.572617 10.6117 0.572617C11.08 0.572617 11.2748 1.17196 10.896 1.44723C10.5172 1.72245 10.0074 1.35228 10.1521 0.907017Z" fill="white"/>
<path d="M10.1521 6.38083C10.2968 5.93564 10.9266 5.93564 11.0713 6.38083C11.216 6.8261 10.7062 7.19626 10.3274 6.92105C9.94861 6.64578 10.1434 6.04643 10.6117 6.04643C11.08 6.04643 11.2748 6.64578 10.896 6.92105C10.5172 7.19626 10.0074 6.8261 10.1521 6.38083Z" fill="white"/>
<path d="M10.1521 11.856C10.2968 11.4108 10.9266 11.4108 11.0713 11.856C11.216 12.3013 10.7062 12.6714 10.3274 12.3962C9.94861 12.1209 10.1434 11.5216 10.6117 11.5216C11.08 11.5216 11.2748 12.1209 10.896 12.3962C10.5172 12.6714 10.0074 12.3013 10.1521 11.856Z" fill="white"/>
<path d="M10.1521 17.3313C10.2968 16.8861 10.9266 16.8861 11.0713 17.3313C11.216 17.7765 10.7062 18.1467 10.3274 17.8715C9.94861 17.5962 10.1434 16.9969 10.6117 16.9969C11.08 16.9969 11.2748 17.5962 10.896 17.8715C10.5172 18.1467 10.0074 17.7765 10.1521 17.3313Z" fill="white"/>
<path d="M10.1521 22.8038C10.2968 22.3586 10.9266 22.3586 11.0713 22.8038C11.216 23.2491 10.7062 23.6192 10.3274 23.344C9.94861 23.0688 10.1434 22.4694 10.6117 22.4694C11.08 22.4694 11.2748 23.0688 10.896 23.344C10.5172 23.6192 10.0074 23.2491 10.1521 22.8038Z" fill="white"/>
<path d="M13.3721 3.64328C13.5168 3.19809 14.1466 3.1981 14.2913 3.64329C14.4361 4.08855 13.9262 4.45871 13.5475 4.1835C13.1686 3.90823 13.3635 3.30888 13.8317 3.30888C14.3 3.30888 14.4948 3.90823 14.116 4.1835C13.7372 4.45871 13.2274 4.08855 13.3721 3.64328Z" fill="white"/>
<path d="M13.3722 9.1185C13.5169 8.67331 14.1467 8.67331 14.2914 9.1185C14.4361 9.56377 13.9263 9.93393 13.5475 9.65872C13.1687 9.38345 13.3635 8.7841 13.8318 8.7841C14.3001 8.7841 14.4949 9.38345 14.116 9.65872C13.7373 9.93393 13.2275 9.56377 13.3722 9.1185Z" fill="white"/>
<path d="M13.3722 14.5938C13.5169 14.1486 14.1467 14.1486 14.2914 14.5938C14.4361 15.039 13.9263 15.4092 13.5475 15.134C13.1687 14.8587 13.3635 14.2594 13.8318 14.2594C14.3001 14.2594 14.4949 14.8587 14.1161 15.134C13.7373 15.4092 13.2275 15.039 13.3722 14.5938Z" fill="white"/>
<path d="M13.3722 20.0663C13.5169 19.6211 14.1467 19.6211 14.2914 20.0663C14.4361 20.5116 13.9263 20.8817 13.5475 20.6065C13.1687 20.3313 13.3635 19.7319 13.8318 19.7319C14.3001 19.7319 14.4949 20.3313 14.116 20.6065C13.7373 20.8817 13.2275 20.5116 13.3722 20.0663Z" fill="white"/>
<path d="M16.592 0.907017C16.7367 0.461828 17.3665 0.461827 17.5112 0.907016C17.6559 1.35228 17.1461 1.72245 16.7673 1.44723C16.3885 1.17196 16.5833 0.572617 17.0516 0.572617C17.5199 0.572617 17.7147 1.17196 17.3358 1.44723C16.9571 1.72245 16.4473 1.35228 16.592 0.907017Z" fill="white"/>
<path d="M16.592 6.38083C16.7367 5.93564 17.3665 5.93564 17.5112 6.38083C17.6559 6.8261 17.1461 7.19626 16.7673 6.92104C16.3885 6.64578 16.5833 6.04643 17.0516 6.04643C17.5199 6.04643 17.7147 6.64578 17.3358 6.92105C16.9571 7.19626 16.4473 6.8261 16.592 6.38083Z" fill="white"/>
<path d="M16.592 11.856C16.7367 11.4108 17.3665 11.4108 17.5112 11.856C17.6559 12.3013 17.1461 12.6714 16.7673 12.3962C16.3885 12.1209 16.5833 11.5216 17.0516 11.5216C17.5199 11.5216 17.7147 12.1209 17.3358 12.3962C16.9571 12.6714 16.4473 12.3013 16.592 11.856Z" fill="white"/>
<path d="M16.592 17.3313C16.7367 16.8861 17.3665 16.8861 17.5112 17.3313C17.6559 17.7765 17.1461 18.1467 16.7673 17.8715C16.3885 17.5962 16.5833 16.9969 17.0516 16.9969C17.5199 16.9969 17.7147 17.5962 17.3358 17.8715C16.9571 18.1467 16.4473 17.7765 16.592 17.3313Z" fill="white"/>
<path d="M16.592 22.8038C16.7367 22.3586 17.3665 22.3586 17.5112 22.8038C17.6559 23.2491 17.1461 23.6192 16.7673 23.344C16.3885 23.0687 16.5833 22.4694 17.0516 22.4694C17.5199 22.4694 17.7147 23.0688 17.3358 23.344C16.9571 23.6192 16.4473 23.2491 16.592 22.8038Z" fill="white"/>
<path d="M19.8121 3.64329C19.9568 3.1981 20.5866 3.19809 20.7313 3.64328C20.876 4.08855 20.3662 4.45871 19.9874 4.1835C19.6086 3.90823 19.8034 3.30888 20.2717 3.30888C20.74 3.30888 20.9348 3.90823 20.5559 4.1835C20.1772 4.45871 19.6674 4.08855 19.8121 3.64329Z" fill="white"/>
<path d="M19.8121 9.1185C19.9568 8.67331 20.5866 8.67331 20.7313 9.1185C20.8761 9.56377 20.3662 9.93393 19.9875 9.65872C19.6086 9.38345 19.8035 8.7841 20.2717 8.7841C20.74 8.7841 20.9348 9.38345 20.556 9.65872C20.1772 9.93393 19.6674 9.56377 19.8121 9.1185Z" fill="white"/>
<path d="M19.8121 14.5938C19.9568 14.1486 20.5866 14.1486 20.7313 14.5938C20.8761 15.039 20.3662 15.4092 19.9875 15.134C19.6086 14.8587 19.8035 14.2594 20.2717 14.2594C20.74 14.2594 20.9348 14.8587 20.556 15.134C20.1772 15.4092 19.6674 15.039 19.8121 14.5938Z" fill="white"/>
<path d="M19.8121 20.0663C19.9568 19.6211 20.5866 19.6211 20.7313 20.0663C20.8761 20.5116 20.3662 20.8817 19.9875 20.6065C19.6086 20.3313 19.8035 19.7319 20.2717 19.7319C20.74 19.7319 20.9348 20.3313 20.556 20.6065C20.1772 20.8817 19.6674 20.5116 19.8121 20.0663Z" fill="white"/>
<path d="M23.0301 0.907017C23.1748 0.461828 23.8046 0.461827 23.9493 0.907016C24.094 1.35228 23.5842 1.72245 23.2054 1.44723C22.8266 1.17196 23.0214 0.572617 23.4897 0.572617C23.958 0.572617 24.1528 1.17196 23.7739 1.44723C23.3952 1.72245 22.8854 1.35228 23.0301 0.907017Z" fill="white"/>
<path d="M23.0301 6.38083C23.1748 5.93564 23.8046 5.93564 23.9493 6.38083C24.094 6.8261 23.5842 7.19626 23.2054 6.92104C22.8266 6.64578 23.0214 6.04643 23.4897 6.04643C23.958 6.04643 24.1528 6.64578 23.7739 6.92105C23.3952 7.19626 22.8854 6.8261 23.0301 6.38083Z" fill="white"/>
<path d="M23.0301 11.856C23.1748 11.4108 23.8046 11.4108 23.9493 11.856C24.094 12.3013 23.5842 12.6714 23.2054 12.3962C22.8266 12.1209 23.0214 11.5216 23.4897 11.5216C23.958 11.5216 24.1528 12.1209 23.7739 12.3962C23.3952 12.6714 22.8854 12.3013 23.0301 11.856Z" fill="white"/>
<path d="M23.0301 17.3313C23.1748 16.8861 23.8046 16.8861 23.9493 17.3313C24.094 17.7765 23.5842 18.1467 23.2054 17.8715C22.8266 17.5962 23.0214 16.9969 23.4897 16.9969C23.958 16.9969 24.1528 17.5962 23.7739 17.8715C23.3952 18.1467 22.8854 17.7765 23.0301 17.3313Z" fill="white"/>
<path d="M23.0301 22.8038C23.1748 22.3586 23.8046 22.3586 23.9493 22.8038C24.094 23.2491 23.5842 23.6192 23.2054 23.344C22.8266 23.0687 23.0214 22.4694 23.4897 22.4694C23.958 22.4694 24.1528 23.0688 23.7739 23.344C23.3952 23.6192 22.8854 23.2491 23.0301 22.8038Z" fill="white"/>
</g>
</g>
</svg>
