<!-- by TradingView --><svg width="18" height="18" viewBox="0 0 18 18" xmlns="http://www.w3.org/2000/svg"><path fill="#1E88E9" d="M0 0H11V11H0z" shape-rendering="crispEdges"/><path fill="#EF5350" d="M11 0v4H18v-4zM11 7v4H18v-4zM0 14v4H18v-4z" shape-rendering="crispEdges"/><path fill="#F8F9FD" d="M11 4v3H18v-3zM0 11v3H18v-3z" shape-rendering="crispEdges"/><path fill="#F8F9FD" d="M2.42 1.22a.09.09 0 0 1 .16 0l.27.71c.01.04.05.06.08.06l.76.04c.08 0 .11.1.05.16l-.6.47a.09.09 0 0 0-.02.1l.2.72a.09.09 0 0 1-.14.1l-.63-.41a.09.09 0 0 0-.1 0l-.63.41a.09.09 0 0 1-.14-.1l.2-.73a.09.09 0 0 0-.03-.1l-.59-.46a.09.09 0 0 1 .05-.16l.76-.04c.03 0 .07-.02.08-.06l.27-.7zM2.42 4.22a.09.09 0 0 1 .16 0l.27.71c.01.04.05.06.08.06l.76.04c.08 0 .11.1.05.16l-.6.47a.09.09 0 0 0-.02.1l.2.72a.09.09 0 0 1-.14.1l-.63-.41a.09.09 0 0 0-.1 0l-.63.41a.09.09 0 0 1-.14-.1l.2-.73a.09.09 0 0 0-.03-.1l-.59-.46a.09.09 0 0 1 .05-.16l.76-.04c.03 0 .07-.02.08-.06l.27-.7zM2.42 7.22a.09.09 0 0 1 .16 0l.27.71c.01.04.05.06.08.06l.76.04c.08 0 .11.1.05.16l-.6.47a.09.09 0 0 0-.02.1l.2.72a.09.09 0 0 1-.14.1l-.63-.41a.09.09 0 0 0-.1 0l-.63.41a.09.09 0 0 1-.14-.1l.2-.73a.09.09 0 0 0-.03-.1l-.59-.46a.09.09 0 0 1 .05-.16l.76-.04c.03 0 .07-.02.08-.06l.27-.7zM5.42 1.22a.09.09 0 0 1 .16 0l.27.71c.01.04.05.06.08.06l.76.04c.08 0 .11.1.05.16l-.6.47a.09.09 0 0 0-.02.1l.2.72a.09.09 0 0 1-.14.1l-.63-.41a.09.09 0 0 0-.1 0l-.63.41a.09.09 0 0 1-.14-.1l.2-.73a.09.09 0 0 0-.03-.1l-.59-.46a.09.09 0 0 1 .05-.16l.76-.04c.03 0 .07-.02.08-.06l.27-.7zM5.42 4.22a.09.09 0 0 1 .16 0l.27.71c.01.04.05.06.08.06l.76.04c.08 0 .11.1.05.16l-.6.47a.09.09 0 0 0-.02.1l.2.72a.09.09 0 0 1-.14.1l-.63-.41a.09.09 0 0 0-.1 0l-.63.41a.09.09 0 0 1-.14-.1l.2-.73a.09.09 0 0 0-.03-.1l-.59-.46a.09.09 0 0 1 .05-.16l.76-.04c.03 0 .07-.02.08-.06l.27-.7zM5.42 7.22a.09.09 0 0 1 .16 0l.27.71c.01.04.05.06.08.06l.76.04c.08 0 .11.1.05.16l-.6.47a.09.09 0 0 0-.02.1l.2.72a.09.09 0 0 1-.14.1l-.63-.41a.09.09 0 0 0-.1 0l-.63.41a.09.09 0 0 1-.14-.1l.2-.73a.09.09 0 0 0-.03-.1l-.59-.46a.09.09 0 0 1 .05-.16l.76-.04c.03 0 .07-.02.08-.06l.27-.7zM8.42 1.22a.09.09 0 0 1 .16 0l.27.71c.01.04.05.06.08.06l.76.04c.08 0 .11.1.05.16l-.6.47a.09.09 0 0 0-.02.1l.2.72a.09.09 0 0 1-.14.1l-.63-.41a.09.09 0 0 0-.1 0l-.63.41a.09.09 0 0 1-.14-.1l.2-.73a.09.09 0 0 0-.03-.1l-.59-.46a.09.09 0 0 1 .05-.16l.76-.04c.03 0 .07-.02.08-.06l.27-.7zM8.42 4.22a.09.09 0 0 1 .16 0l.27.71c.01.04.05.06.08.06l.76.04c.08 0 .11.1.05.16l-.6.47a.09.09 0 0 0-.02.1l.2.72a.09.09 0 0 1-.14.1l-.63-.41a.09.09 0 0 0-.1 0l-.63.41a.09.09 0 0 1-.14-.1l.2-.73a.09.09 0 0 0-.03-.1l-.59-.46a.09.09 0 0 1 .05-.16l.76-.04c.03 0 .07-.02.08-.06l.27-.7zM8.42 7.22a.09.09 0 0 1 .16 0l.27.71c.01.04.05.06.08.06l.76.04c.08 0 .11.1.05.16l-.6.47a.09.09 0 0 0-.02.1l.2.72a.09.09 0 0 1-.14.1l-.63-.41a.09.09 0 0 0-.1 0l-.63.41a.09.09 0 0 1-.14-.1l.2-.73a.09.09 0 0 0-.03-.1l-.59-.46a.09.09 0 0 1 .05-.16l.76-.04c.03 0 .07-.02.08-.06l.27-.7z"/></svg>